<svg width="294" height="294" viewBox="0 0 294 294" fill="none" xmlns="http://www.w3.org/2000/svg">
<g clip-path="url(#clip0_1965_2149)">
<path d="M17 28L10 21L17 14" stroke="#334563" stroke-width="1.6" stroke-linecap="round" stroke-linejoin="round"/>
<path d="M97.688 26H96.536V14.672H103.368V15.728H97.688V19.584H102.968V20.64H97.688V26ZM110.867 21.68C110.867 20.9653 110.653 20.3893 110.227 19.952C109.8 19.504 109.203 19.28 108.435 19.28C108.093 19.28 107.763 19.3493 107.443 19.488C107.123 19.616 106.84 19.792 106.595 20.016C106.36 20.24 106.168 20.496 106.019 20.784C105.88 21.072 105.811 21.3707 105.811 21.68H110.867ZM105.779 22.544C105.811 22.9173 105.901 23.2693 106.051 23.6C106.2 23.9307 106.397 24.2187 106.643 24.464C106.888 24.6987 107.171 24.8853 107.491 25.024C107.811 25.1627 108.157 25.232 108.531 25.232C109.096 25.232 109.581 25.104 109.987 24.848C110.403 24.5813 110.717 24.2773 110.931 23.936L111.747 24.608C111.299 25.1733 110.803 25.5787 110.259 25.824C109.725 26.0693 109.149 26.192 108.531 26.192C107.976 26.192 107.459 26.096 106.979 25.904C106.509 25.7013 106.104 25.424 105.763 25.072C105.421 24.72 105.149 24.304 104.947 23.824C104.755 23.344 104.659 22.8213 104.659 22.256C104.659 21.6907 104.755 21.168 104.947 20.688C105.139 20.208 105.405 19.792 105.747 19.44C106.088 19.088 106.488 18.816 106.947 18.624C107.405 18.4213 107.901 18.32 108.435 18.32C109 18.32 109.507 18.4213 109.955 18.624C110.403 18.8267 110.776 19.0987 111.075 19.44C111.384 19.7707 111.619 20.1653 111.779 20.624C111.939 21.072 112.019 21.552 112.019 22.064V22.544H105.779ZM120.765 22.256C120.765 21.84 120.696 21.4507 120.557 21.088C120.429 20.7253 120.243 20.4107 119.997 20.144C119.752 19.8773 119.453 19.6693 119.101 19.52C118.76 19.36 118.371 19.28 117.933 19.28C117.496 19.28 117.096 19.36 116.733 19.52C116.371 19.6693 116.056 19.8773 115.789 20.144C115.523 20.4107 115.315 20.7253 115.165 21.088C115.016 21.4507 114.941 21.84 114.941 22.256C114.941 22.672 115.016 23.0613 115.165 23.424C115.315 23.7867 115.523 24.1013 115.789 24.368C116.056 24.6347 116.371 24.848 116.733 25.008C117.096 25.1573 117.496 25.232 117.933 25.232C118.371 25.232 118.76 25.1573 119.101 25.008C119.453 24.848 119.752 24.6347 119.997 24.368C120.243 24.1013 120.429 23.7867 120.557 23.424C120.696 23.0613 120.765 22.672 120.765 22.256ZM113.933 13.904H114.989V19.76H115.021C115.192 19.504 115.395 19.2853 115.629 19.104C115.864 18.9227 116.109 18.7733 116.365 18.656C116.621 18.5387 116.883 18.4533 117.149 18.4C117.427 18.3467 117.688 18.32 117.933 18.32C118.52 18.32 119.053 18.4213 119.533 18.624C120.024 18.816 120.445 19.088 120.797 19.44C121.149 19.792 121.421 20.208 121.613 20.688C121.816 21.168 121.917 21.6907 121.917 22.256C121.917 22.8213 121.816 23.344 121.613 23.824C121.421 24.304 121.149 24.72 120.797 25.072C120.445 25.424 120.024 25.7013 119.533 25.904C119.053 26.096 118.52 26.192 117.933 26.192C117.688 26.192 117.427 26.1653 117.149 26.112C116.883 26.0587 116.621 25.9733 116.365 25.856C116.109 25.7387 115.864 25.5893 115.629 25.408C115.395 25.2267 115.192 25.008 115.021 24.752H114.989V26H113.933V13.904ZM123.827 20.848C123.827 20.5173 123.816 20.1813 123.795 19.84C123.784 19.4987 123.773 19.056 123.763 18.512H124.803V19.904H124.835C124.909 19.7013 125.016 19.5093 125.155 19.328C125.293 19.136 125.459 18.9653 125.651 18.816C125.853 18.6667 126.083 18.5493 126.339 18.464C126.605 18.368 126.904 18.32 127.235 18.32C127.533 18.32 127.795 18.352 128.019 18.416L127.811 19.456C127.672 19.4027 127.469 19.376 127.203 19.376C126.797 19.376 126.451 19.456 126.163 19.616C125.875 19.7653 125.635 19.9627 125.443 20.208C125.251 20.4427 125.107 20.6987 125.011 20.976C124.925 21.2533 124.883 21.52 124.883 21.776V26H123.827V20.848ZM134.435 26C134.414 25.7973 134.398 25.6 134.387 25.408C134.387 25.2053 134.387 25.0027 134.387 24.8H134.355C134.238 25.0027 134.088 25.1893 133.907 25.36C133.726 25.5307 133.523 25.68 133.299 25.808C133.075 25.9253 132.835 26.016 132.579 26.08C132.334 26.1547 132.088 26.192 131.843 26.192C130.883 26.192 130.174 25.9413 129.715 25.44C129.256 24.928 129.027 24.2027 129.027 23.264V18.512H130.083V22.656C130.083 23.072 130.115 23.44 130.179 23.76C130.243 24.08 130.35 24.352 130.499 24.576C130.659 24.7893 130.867 24.9547 131.123 25.072C131.39 25.1787 131.72 25.232 132.115 25.232C132.168 25.232 132.318 25.2107 132.563 25.168C132.808 25.1253 133.064 25.008 133.331 24.816C133.608 24.624 133.854 24.336 134.067 23.952C134.28 23.568 134.387 23.0347 134.387 22.352V18.512H135.443V24.352C135.443 24.5547 135.448 24.8107 135.459 25.12C135.48 25.4293 135.502 25.7227 135.523 26H134.435ZM142.174 22.272C141.907 22.272 141.571 22.288 141.166 22.32C140.771 22.3413 140.387 22.4053 140.014 22.512C139.651 22.608 139.336 22.7627 139.07 22.976C138.814 23.1893 138.686 23.4827 138.686 23.856C138.686 24.1013 138.734 24.3147 138.83 24.496C138.936 24.6667 139.075 24.8107 139.246 24.928C139.416 25.0347 139.603 25.1147 139.806 25.168C140.019 25.2107 140.232 25.232 140.446 25.232C140.83 25.232 141.16 25.168 141.438 25.04C141.726 24.912 141.966 24.7413 142.158 24.528C142.35 24.304 142.488 24.048 142.574 23.76C142.67 23.4613 142.718 23.1467 142.718 22.816V22.272H142.174ZM142.718 21.408V21.216C142.718 19.9253 142.078 19.28 140.798 19.28C139.923 19.28 139.16 19.5733 138.51 20.16L137.87 19.408C138.574 18.6827 139.63 18.32 141.038 18.32C141.4 18.32 141.747 18.3733 142.078 18.48C142.419 18.5867 142.712 18.752 142.958 18.976C143.203 19.1893 143.4 19.4613 143.55 19.792C143.699 20.1227 143.774 20.5173 143.774 20.976V24.32C143.774 24.608 143.784 24.912 143.806 25.232C143.838 25.5413 143.87 25.7973 143.902 26H142.878C142.846 25.8187 142.819 25.6213 142.798 25.408C142.787 25.1947 142.782 24.9867 142.782 24.784H142.75C142.44 25.2853 142.072 25.648 141.646 25.872C141.23 26.0853 140.718 26.192 140.11 26.192C139.779 26.192 139.459 26.144 139.15 26.048C138.84 25.9627 138.563 25.8293 138.318 25.648C138.083 25.456 137.891 25.2267 137.742 24.96C137.603 24.6827 137.534 24.3627 137.534 24C137.534 23.392 137.688 22.9173 137.998 22.576C138.318 22.224 138.712 21.9627 139.182 21.792C139.662 21.6213 140.168 21.5147 140.702 21.472C141.246 21.4293 141.742 21.408 142.19 21.408H142.718ZM146.327 20.848C146.327 20.5173 146.316 20.1813 146.295 19.84C146.284 19.4987 146.273 19.056 146.263 18.512H147.303V19.904H147.335C147.409 19.7013 147.516 19.5093 147.655 19.328C147.793 19.136 147.959 18.9653 148.151 18.816C148.353 18.6667 148.583 18.5493 148.839 18.464C149.105 18.368 149.404 18.32 149.735 18.32C150.033 18.32 150.295 18.352 150.519 18.416L150.311 19.456C150.172 19.4027 149.969 19.376 149.703 19.376C149.297 19.376 148.951 19.456 148.663 19.616C148.375 19.7653 148.135 19.9627 147.943 20.208C147.751 20.4427 147.607 20.6987 147.511 20.976C147.425 21.2533 147.383 21.52 147.383 21.776V26H146.327V20.848ZM154.311 24.704L156.599 18.512H157.879L154.135 27.952C153.911 28.528 153.623 28.9867 153.271 29.328C152.93 29.6693 152.434 29.84 151.783 29.84C151.623 29.84 151.458 29.8347 151.287 29.824C151.127 29.8133 150.967 29.7813 150.807 29.728L150.919 28.704C151.143 28.8213 151.41 28.88 151.719 28.88C152.092 28.88 152.386 28.7627 152.599 28.528C152.812 28.2933 152.999 27.9627 153.159 27.536L153.703 26.096L150.631 18.512H151.959L154.311 24.704ZM170.515 26H163.315V24.672L167.827 20.08C167.998 19.9093 168.168 19.728 168.339 19.536C168.51 19.344 168.664 19.1413 168.803 18.928C168.942 18.7147 169.054 18.4907 169.139 18.256C169.224 18.0213 169.267 17.776 169.267 17.52C169.267 17.2107 169.208 16.9333 169.091 16.688C168.984 16.4427 168.83 16.2347 168.627 16.064C168.424 15.8933 168.19 15.7653 167.923 15.68C167.656 15.584 167.374 15.536 167.075 15.536C166.499 15.536 166.008 15.696 165.603 16.016C165.198 16.336 164.936 16.768 164.819 17.312L163.603 17.184C163.763 16.3413 164.147 15.68 164.755 15.2C165.374 14.72 166.12 14.48 166.995 14.48C167.454 14.48 167.886 14.544 168.291 14.672C168.707 14.7893 169.07 14.9707 169.379 15.216C169.699 15.4613 169.95 15.7707 170.131 16.144C170.323 16.5067 170.419 16.9333 170.419 17.424C170.419 17.8613 170.35 18.2613 170.211 18.624C170.083 18.9867 169.912 19.328 169.699 19.648C169.486 19.968 169.24 20.272 168.963 20.56C168.696 20.848 168.419 21.1307 168.131 21.408L164.563 24.944H170.515V26ZM175.886 15.536C175.267 15.536 174.776 15.7013 174.414 16.032C174.062 16.3627 173.795 16.7733 173.614 17.264C173.432 17.7547 173.315 18.2773 173.262 18.832C173.219 19.3867 173.198 19.888 173.198 20.336C173.198 20.784 173.219 21.2853 173.262 21.84C173.315 22.3947 173.432 22.9173 173.614 23.408C173.795 23.8987 174.062 24.3093 174.414 24.64C174.776 24.9707 175.267 25.136 175.886 25.136C176.504 25.136 176.99 24.9707 177.342 24.64C177.704 24.3093 177.976 23.8987 178.158 23.408C178.339 22.9173 178.451 22.3947 178.494 21.84C178.547 21.2853 178.574 20.784 178.574 20.336C178.574 19.888 178.547 19.3867 178.494 18.832C178.451 18.2773 178.339 17.7547 178.158 17.264C177.976 16.7733 177.704 16.3627 177.342 16.032C176.99 15.7013 176.504 15.536 175.886 15.536ZM175.886 14.48C176.696 14.48 177.352 14.6667 177.854 15.04C178.355 15.4133 178.744 15.888 179.022 16.464C179.299 17.04 179.486 17.6747 179.582 18.368C179.678 19.0507 179.726 19.7067 179.726 20.336C179.726 20.9653 179.678 21.6267 179.582 22.32C179.486 23.0027 179.299 23.632 179.022 24.208C178.744 24.784 178.355 25.2587 177.854 25.632C177.352 26.0053 176.696 26.192 175.886 26.192C175.075 26.192 174.419 26.0053 173.918 25.632C173.416 25.2587 173.027 24.784 172.75 24.208C172.472 23.632 172.286 23.0027 172.19 22.32C172.094 21.6267 172.046 20.9653 172.046 20.336C172.046 19.7067 172.094 19.0507 172.19 18.368C172.286 17.6747 172.472 17.04 172.75 16.464C173.027 15.888 173.416 15.4133 173.918 15.04C174.419 14.6667 175.075 14.48 175.886 14.48ZM188.296 26H181.096V24.672L185.608 20.08C185.779 19.9093 185.949 19.728 186.12 19.536C186.291 19.344 186.445 19.1413 186.584 18.928C186.723 18.7147 186.835 18.4907 186.92 18.256C187.005 18.0213 187.048 17.776 187.048 17.52C187.048 17.2107 186.989 16.9333 186.872 16.688C186.765 16.4427 186.611 16.2347 186.408 16.064C186.205 15.8933 185.971 15.7653 185.704 15.68C185.437 15.584 185.155 15.536 184.856 15.536C184.28 15.536 183.789 15.696 183.384 16.016C182.979 16.336 182.717 16.768 182.6 17.312L181.384 17.184C181.544 16.3413 181.928 15.68 182.536 15.2C183.155 14.72 183.901 14.48 184.776 14.48C185.235 14.48 185.667 14.544 186.072 14.672C186.488 14.7893 186.851 14.9707 187.16 15.216C187.48 15.4613 187.731 15.7707 187.912 16.144C188.104 16.5067 188.2 16.9333 188.2 17.424C188.2 17.8613 188.131 18.2613 187.992 18.624C187.864 18.9867 187.693 19.328 187.48 19.648C187.267 19.968 187.021 20.272 186.744 20.56C186.477 20.848 186.2 21.1307 185.912 21.408L182.344 24.944H188.296V26ZM197.187 26H189.987V24.672L194.499 20.08C194.669 19.9093 194.84 19.728 195.011 19.536C195.181 19.344 195.336 19.1413 195.475 18.928C195.613 18.7147 195.725 18.4907 195.811 18.256C195.896 18.0213 195.939 17.776 195.939 17.52C195.939 17.2107 195.88 16.9333 195.763 16.688C195.656 16.4427 195.501 16.2347 195.299 16.064C195.096 15.8933 194.861 15.7653 194.595 15.68C194.328 15.584 194.045 15.536 193.747 15.536C193.171 15.536 192.68 15.696 192.275 16.016C191.869 16.336 191.608 16.768 191.491 17.312L190.275 17.184C190.435 16.3413 190.819 15.68 191.427 15.2C192.045 14.72 192.792 14.48 193.667 14.48C194.125 14.48 194.557 14.544 194.963 14.672C195.379 14.7893 195.741 14.9707 196.051 15.216C196.371 15.4613 196.621 15.7707 196.803 16.144C196.995 16.5067 197.091 16.9333 197.091 17.424C197.091 17.8613 197.021 18.2613 196.883 18.624C196.755 18.9867 196.584 19.328 196.371 19.648C196.157 19.968 195.912 20.272 195.635 20.56C195.368 20.848 195.091 21.1307 194.803 21.408L191.235 24.944H197.187V26Z" fill="#238F53"/>
<path d="M277 14L284 21L277 28" stroke="#334563" stroke-width="1.6" stroke-linecap="round" stroke-linejoin="round"/>
<path d="M14.7887 64.928C15.0314 65.292 15.3394 65.5627 15.7127 65.74C16.0954 65.908 16.4874 65.992 16.8887 65.992C17.1127 65.992 17.3414 65.9593 17.5747 65.894C17.808 65.8193 18.018 65.712 18.2047 65.572C18.4007 65.432 18.5594 65.2593 18.6807 65.054C18.802 64.8487 18.8627 64.6107 18.8627 64.34C18.8627 63.9573 18.7414 63.668 18.4987 63.472C18.256 63.2667 17.9527 63.0987 17.5887 62.968C17.234 62.828 16.842 62.6973 16.4127 62.576C15.9927 62.4453 15.6007 62.268 15.2367 62.044C14.882 61.82 14.5834 61.5213 14.3407 61.148C14.098 60.7653 13.9767 60.252 13.9767 59.608C13.9767 59.3187 14.0374 59.0107 14.1587 58.684C14.2894 58.3573 14.49 58.0587 14.7607 57.788C15.0314 57.5173 15.3767 57.2933 15.7967 57.116C16.226 56.9293 16.7394 56.836 17.3367 56.836C17.878 56.836 18.396 56.9107 18.8907 57.06C19.3854 57.2093 19.8194 57.5127 20.1927 57.97L19.1007 58.964C18.9327 58.7027 18.6947 58.4927 18.3867 58.334C18.0787 58.1753 17.7287 58.096 17.3367 58.096C16.9634 58.096 16.6507 58.1473 16.3987 58.25C16.156 58.3433 15.96 58.4693 15.8107 58.628C15.6614 58.7773 15.554 58.9407 15.4887 59.118C15.4327 59.2953 15.4047 59.4587 15.4047 59.608C15.4047 60.028 15.526 60.35 15.7687 60.574C16.0114 60.798 16.31 60.98 16.6647 61.12C17.0287 61.26 17.4207 61.386 17.8407 61.498C18.27 61.61 18.662 61.7687 19.0167 61.974C19.3807 62.17 19.684 62.4407 19.9267 62.786C20.1694 63.122 20.2907 63.5887 20.2907 64.186C20.2907 64.662 20.1974 65.0913 20.0107 65.474C19.8334 65.8567 19.5907 66.1787 19.2827 66.44C18.9747 66.7013 18.6107 66.902 18.1907 67.042C17.7707 67.182 17.3227 67.252 16.8467 67.252C16.212 67.252 15.61 67.14 15.0407 66.916C14.4714 66.692 14.0187 66.3467 13.6827 65.88L14.7887 64.928ZM27.832 67H26.572V65.978H26.544C26.3853 66.3327 26.11 66.622 25.718 66.846C25.326 67.0607 24.8733 67.168 24.36 67.168C24.0333 67.168 23.7253 67.1167 23.436 67.014C23.1467 66.9207 22.89 66.7713 22.666 66.566C22.4513 66.3607 22.2787 66.0993 22.148 65.782C22.0173 65.4553 21.952 65.0727 21.952 64.634V60.364H23.212V64.284C23.212 64.592 23.254 64.858 23.338 65.082C23.422 65.2967 23.534 65.474 23.674 65.614C23.814 65.7447 23.9727 65.8427 24.15 65.908C24.3367 65.964 24.528 65.992 24.724 65.992C24.9853 65.992 25.228 65.95 25.452 65.866C25.676 65.782 25.872 65.6513 26.04 65.474C26.208 65.2873 26.3387 65.054 26.432 64.774C26.5253 64.494 26.572 64.1627 26.572 63.78V60.364H27.832V67Z" fill="#334563"/>
<path d="M53.676 57.088H55.678L58.828 64.592H58.884L62.006 57.088H64.008V67H62.664V58.852H62.636L59.29 67H58.394L55.048 58.852H55.02V67H53.676V57.088ZM67.1615 63.682C67.1615 64.018 67.2128 64.3307 67.3155 64.62C67.4182 64.9 67.5628 65.1427 67.7495 65.348C67.9362 65.544 68.1648 65.7027 68.4355 65.824C68.7062 65.936 69.0095 65.992 69.3455 65.992C69.6815 65.992 69.9848 65.936 70.2555 65.824C70.5262 65.7027 70.7548 65.544 70.9415 65.348C71.1282 65.1427 71.2728 64.9 71.3755 64.62C71.4782 64.3307 71.5295 64.018 71.5295 63.682C71.5295 63.346 71.4782 63.038 71.3755 62.758C71.2728 62.4687 71.1282 62.226 70.9415 62.03C70.7548 61.8247 70.5262 61.666 70.2555 61.554C69.9848 61.4327 69.6815 61.372 69.3455 61.372C69.0095 61.372 68.7062 61.4327 68.4355 61.554C68.1648 61.666 67.9362 61.8247 67.7495 62.03C67.5628 62.226 67.4182 62.4687 67.3155 62.758C67.2128 63.038 67.1615 63.346 67.1615 63.682ZM65.8175 63.682C65.8175 63.1967 65.9062 62.744 66.0835 62.324C66.2702 61.904 66.5222 61.5353 66.8395 61.218C67.1568 60.9007 67.5302 60.6533 67.9595 60.476C68.3888 60.2893 68.8508 60.196 69.3455 60.196C69.8402 60.196 70.3022 60.2893 70.7315 60.476C71.1608 60.6533 71.5342 60.9007 71.8515 61.218C72.1688 61.5353 72.4162 61.904 72.5935 62.324C72.7802 62.744 72.8735 63.1967 72.8735 63.682C72.8735 64.1673 72.7802 64.6247 72.5935 65.054C72.4162 65.474 72.1688 65.8427 71.8515 66.16C71.5342 66.468 71.1608 66.7153 70.7315 66.902C70.3022 67.0793 69.8402 67.168 69.3455 67.168C68.8508 67.168 68.3888 67.0793 67.9595 66.902C67.5302 66.7153 67.1568 66.468 66.8395 66.16C66.5222 65.8427 66.2702 65.474 66.0835 65.054C65.9062 64.6247 65.8175 64.1673 65.8175 63.682Z" fill="#334563"/>
<path d="M101.141 58.348H97.9489V57.088H105.677V58.348H102.485V67H101.141V58.348ZM111.258 67H109.998V65.978H109.97C109.811 66.3327 109.536 66.622 109.144 66.846C108.752 67.0607 108.299 67.168 107.786 67.168C107.459 67.168 107.151 67.1167 106.862 67.014C106.572 66.9207 106.316 66.7713 106.092 66.566C105.877 66.3607 105.704 66.0993 105.574 65.782C105.443 65.4553 105.378 65.0727 105.378 64.634V60.364H106.638V64.284C106.638 64.592 106.68 64.858 106.764 65.082C106.848 65.2967 106.96 65.474 107.1 65.614C107.24 65.7447 107.398 65.8427 107.576 65.908C107.762 65.964 107.954 65.992 108.15 65.992C108.411 65.992 108.654 65.95 108.878 65.866C109.102 65.782 109.298 65.6513 109.466 65.474C109.634 65.2873 109.764 65.054 109.858 64.774C109.951 64.494 109.998 64.1627 109.998 63.78V60.364H111.258V67Z" fill="#334563"/>
<path d="M136.719 57.088H138.119L140.303 65.012H140.331L142.669 57.088H144.209L146.547 65.012H146.575L148.759 57.088H150.159L147.275 67H145.861L143.453 58.908H143.425L141.031 67H139.617L136.719 57.088ZM151.42 64.144C151.42 64.4333 151.48 64.6993 151.602 64.942C151.732 65.1753 151.9 65.376 152.106 65.544C152.311 65.712 152.549 65.8427 152.82 65.936C153.09 66.0293 153.37 66.076 153.66 66.076C154.052 66.076 154.392 65.9873 154.682 65.81C154.971 65.6233 155.237 65.3807 155.48 65.082L156.432 65.81C155.732 66.7153 154.752 67.168 153.492 67.168C152.969 67.168 152.493 67.0793 152.064 66.902C151.644 66.7247 151.284 66.482 150.986 66.174C150.696 65.8567 150.472 65.488 150.314 65.068C150.155 64.6387 150.076 64.1767 150.076 63.682C150.076 63.1873 150.16 62.73 150.328 62.31C150.505 61.8807 150.743 61.512 151.042 61.204C151.35 60.8867 151.714 60.6393 152.134 60.462C152.554 60.2847 153.011 60.196 153.506 60.196C154.094 60.196 154.588 60.2987 154.99 60.504C155.4 60.7093 155.736 60.98 155.998 61.316C156.259 61.6427 156.446 62.016 156.558 62.436C156.679 62.8467 156.74 63.2667 156.74 63.696V64.144H151.42ZM155.396 63.136C155.386 62.856 155.34 62.5993 155.256 62.366C155.181 62.1327 155.064 61.932 154.906 61.764C154.747 61.5867 154.546 61.4513 154.304 61.358C154.07 61.2553 153.795 61.204 153.478 61.204C153.17 61.204 152.885 61.2647 152.624 61.386C152.372 61.498 152.157 61.6473 151.98 61.834C151.802 62.0207 151.662 62.2307 151.56 62.464C151.466 62.688 151.42 62.912 151.42 63.136H155.396Z" fill="#334563"/>
<path d="M184.437 58.348H181.245V57.088H188.973V58.348H185.781V67H184.437V58.348ZM190.082 56.416H191.342V61.386H191.37C191.529 61.0313 191.804 60.7467 192.196 60.532C192.588 60.308 193.041 60.196 193.554 60.196C193.871 60.196 194.175 60.2473 194.464 60.35C194.763 60.4433 195.019 60.5927 195.234 60.798C195.458 61.0033 195.635 61.2693 195.766 61.596C195.897 61.9133 195.962 62.2913 195.962 62.73V67H194.702V63.08C194.702 62.772 194.66 62.5107 194.576 62.296C194.492 62.072 194.38 61.8947 194.24 61.764C194.1 61.624 193.937 61.526 193.75 61.47C193.573 61.4047 193.386 61.372 193.19 61.372C192.929 61.372 192.686 61.414 192.462 61.498C192.238 61.582 192.042 61.7173 191.874 61.904C191.706 62.0813 191.575 62.31 191.482 62.59C191.389 62.87 191.342 63.2013 191.342 63.584V67H190.082V56.416Z" fill="#334563"/>
<path d="M225.664 57.088H231.894V58.348H227.008V61.456H231.558V62.716H227.008V67H225.664V57.088ZM233.381 60.364H234.641V61.386H234.669C234.753 61.2087 234.865 61.05 235.005 60.91C235.145 60.7607 235.299 60.6347 235.467 60.532C235.644 60.4293 235.835 60.35 236.041 60.294C236.246 60.2287 236.451 60.196 236.657 60.196C236.862 60.196 237.049 60.224 237.217 60.28L237.161 61.638C237.058 61.61 236.955 61.5867 236.853 61.568C236.75 61.5493 236.647 61.54 236.545 61.54C235.929 61.54 235.457 61.7127 235.131 62.058C234.804 62.4033 234.641 62.94 234.641 63.668V67H233.381V60.364Z" fill="#334563"/>
<path d="M267.048 64.928C267.291 65.292 267.599 65.5627 267.972 65.74C268.355 65.908 268.747 65.992 269.148 65.992C269.372 65.992 269.601 65.9593 269.834 65.894C270.068 65.8193 270.278 65.712 270.464 65.572C270.66 65.432 270.819 65.2593 270.94 65.054C271.062 64.8487 271.122 64.6107 271.122 64.34C271.122 63.9573 271.001 63.668 270.758 63.472C270.516 63.2667 270.212 63.0987 269.848 62.968C269.494 62.828 269.102 62.6973 268.672 62.576C268.252 62.4453 267.86 62.268 267.496 62.044C267.142 61.82 266.843 61.5213 266.6 61.148C266.358 60.7653 266.236 60.252 266.236 59.608C266.236 59.3187 266.297 59.0107 266.418 58.684C266.549 58.3573 266.75 58.0587 267.02 57.788C267.291 57.5173 267.636 57.2933 268.056 57.116C268.486 56.9293 268.999 56.836 269.596 56.836C270.138 56.836 270.656 56.9107 271.15 57.06C271.645 57.2093 272.079 57.5127 272.452 57.97L271.36 58.964C271.192 58.7027 270.954 58.4927 270.646 58.334C270.338 58.1753 269.988 58.096 269.596 58.096C269.223 58.096 268.91 58.1473 268.658 58.25C268.416 58.3433 268.22 58.4693 268.07 58.628C267.921 58.7773 267.814 58.9407 267.748 59.118C267.692 59.2953 267.664 59.4587 267.664 59.608C267.664 60.028 267.786 60.35 268.028 60.574C268.271 60.798 268.57 60.98 268.924 61.12C269.288 61.26 269.68 61.386 270.1 61.498C270.53 61.61 270.922 61.7687 271.276 61.974C271.64 62.17 271.944 62.4407 272.186 62.786C272.429 63.122 272.55 63.5887 272.55 64.186C272.55 64.662 272.457 65.0913 272.27 65.474C272.093 65.8567 271.85 66.1787 271.542 66.44C271.234 66.7013 270.87 66.902 270.45 67.042C270.03 67.182 269.582 67.252 269.106 67.252C268.472 67.252 267.87 67.14 267.3 66.916C266.731 66.692 266.278 66.3467 265.942 65.88L267.048 64.928ZM274.24 61.176C274.594 60.8493 275.005 60.6067 275.472 60.448C275.938 60.28 276.405 60.196 276.872 60.196C277.357 60.196 277.772 60.2567 278.118 60.378C278.472 60.4993 278.762 60.6627 278.986 60.868C279.21 61.0733 279.373 61.3113 279.476 61.582C279.588 61.8433 279.644 62.1187 279.644 62.408V65.796C279.644 66.0293 279.648 66.244 279.658 66.44C279.667 66.636 279.681 66.8227 279.7 67H278.58C278.552 66.664 278.538 66.328 278.538 65.992H278.51C278.23 66.4213 277.898 66.7247 277.516 66.902C277.133 67.0793 276.69 67.168 276.186 67.168C275.878 67.168 275.584 67.126 275.304 67.042C275.024 66.958 274.776 66.832 274.562 66.664C274.356 66.496 274.193 66.2907 274.072 66.048C273.95 65.796 273.89 65.5067 273.89 65.18C273.89 64.7507 273.983 64.3913 274.17 64.102C274.366 63.8127 274.627 63.5793 274.954 63.402C275.29 63.2153 275.677 63.0847 276.116 63.01C276.564 62.926 277.04 62.884 277.544 62.884H278.468V62.604C278.468 62.436 278.435 62.268 278.37 62.1C278.304 61.932 278.206 61.7827 278.076 61.652C277.945 61.512 277.782 61.4047 277.586 61.33C277.39 61.246 277.156 61.204 276.886 61.204C276.643 61.204 276.428 61.2273 276.242 61.274C276.064 61.3207 275.901 61.3813 275.752 61.456C275.602 61.5213 275.467 61.6007 275.346 61.694C275.224 61.7873 275.108 61.876 274.996 61.96L274.24 61.176ZM277.796 63.808C277.497 63.808 277.189 63.8267 276.872 63.864C276.564 63.892 276.279 63.9527 276.018 64.046C275.766 64.1393 275.556 64.27 275.388 64.438C275.229 64.606 275.15 64.8207 275.15 65.082C275.15 65.4647 275.276 65.74 275.528 65.908C275.789 66.076 276.139 66.16 276.578 66.16C276.923 66.16 277.217 66.104 277.46 65.992C277.702 65.8707 277.898 65.7167 278.048 65.53C278.197 65.3433 278.304 65.138 278.37 64.914C278.435 64.6807 278.468 64.452 278.468 64.228V63.808H277.796Z" fill="#334563"/>
<path d="M105.982 109H104.974V100.348L103.196 101.916L102.566 101.16L105.086 99.088H105.982V109Z" fill="#238F53"/>
<path d="M150.082 109H143.782V107.838L147.73 103.82C147.88 103.671 148.029 103.512 148.178 103.344C148.328 103.176 148.463 102.999 148.584 102.812C148.706 102.625 148.804 102.429 148.878 102.224C148.953 102.019 148.99 101.804 148.99 101.58C148.99 101.309 148.939 101.067 148.836 100.852C148.743 100.637 148.608 100.455 148.43 100.306C148.253 100.157 148.048 100.045 147.814 99.97C147.581 99.886 147.334 99.844 147.072 99.844C146.568 99.844 146.139 99.984 145.784 100.264C145.43 100.544 145.201 100.922 145.098 101.398L144.034 101.286C144.174 100.549 144.51 99.97 145.042 99.55C145.584 99.13 146.237 98.92 147.002 98.92C147.404 98.92 147.782 98.976 148.136 99.088C148.5 99.1907 148.818 99.3493 149.088 99.564C149.368 99.7787 149.588 100.049 149.746 100.376C149.914 100.693 149.998 101.067 149.998 101.496C149.998 101.879 149.938 102.229 149.816 102.546C149.704 102.863 149.555 103.162 149.368 103.442C149.182 103.722 148.967 103.988 148.724 104.24C148.491 104.492 148.248 104.739 147.996 104.982L144.874 108.076H150.082V109Z" fill="#238F53"/>
<path d="M187.966 103.344H188.484C188.774 103.344 189.049 103.311 189.31 103.246C189.581 103.181 189.814 103.078 190.01 102.938C190.206 102.789 190.36 102.597 190.472 102.364C190.594 102.131 190.654 101.851 190.654 101.524C190.654 100.992 190.491 100.581 190.164 100.292C189.847 99.9933 189.399 99.844 188.82 99.844C188.4 99.844 188.032 99.9373 187.714 100.124C187.397 100.311 187.136 100.581 186.93 100.936L186.048 100.488C186.347 99.956 186.725 99.564 187.182 99.312C187.649 99.0507 188.186 98.92 188.792 98.92C189.184 98.92 189.553 98.976 189.898 99.088C190.244 99.2 190.547 99.368 190.808 99.592C191.07 99.8067 191.275 100.077 191.424 100.404C191.583 100.721 191.662 101.085 191.662 101.496C191.662 101.767 191.616 102.023 191.522 102.266C191.438 102.509 191.317 102.728 191.158 102.924C191.009 103.12 190.832 103.293 190.626 103.442C190.421 103.582 190.206 103.689 189.982 103.764L190.024 103.792C190.304 103.848 190.561 103.955 190.794 104.114C191.028 104.263 191.228 104.45 191.396 104.674C191.564 104.898 191.695 105.15 191.788 105.43C191.882 105.71 191.928 106.004 191.928 106.312C191.928 106.769 191.844 107.175 191.676 107.53C191.508 107.885 191.28 108.183 190.99 108.426C190.701 108.669 190.365 108.855 189.982 108.986C189.6 109.107 189.194 109.168 188.764 109.168C188.036 109.168 187.402 109.009 186.86 108.692C186.319 108.375 185.913 107.866 185.642 107.166L186.706 106.844C186.874 107.32 187.122 107.675 187.448 107.908C187.784 108.132 188.251 108.244 188.848 108.244C189.128 108.244 189.394 108.197 189.646 108.104C189.898 108.011 190.118 107.88 190.304 107.712C190.5 107.535 190.65 107.325 190.752 107.082C190.864 106.839 190.92 106.573 190.92 106.284C190.92 105.911 190.85 105.598 190.71 105.346C190.57 105.085 190.384 104.875 190.15 104.716C189.917 104.557 189.646 104.445 189.338 104.38C189.04 104.305 188.727 104.268 188.4 104.268H187.966V103.344Z" fill="#238F53"/>
<path d="M231.926 100.096H231.898L228.482 105.724H231.926V100.096ZM232.934 105.724H234.362V106.648H232.934V109H231.926V106.648H227.642V105.5L231.646 99.088H232.934V105.724Z" fill="#238F53"/>
<path d="M275.62 100.012H271.56L271.504 102.994C271.719 102.91 271.938 102.849 272.162 102.812C272.386 102.775 272.61 102.756 272.834 102.756C273.301 102.756 273.726 102.835 274.108 102.994C274.491 103.153 274.818 103.377 275.088 103.666C275.368 103.946 275.583 104.282 275.732 104.674C275.891 105.057 275.97 105.477 275.97 105.934C275.97 106.41 275.886 106.849 275.718 107.25C275.55 107.642 275.317 107.983 275.018 108.272C274.72 108.552 274.365 108.771 273.954 108.93C273.553 109.089 273.114 109.168 272.638 109.168C272.013 109.168 271.448 109.019 270.944 108.72C270.44 108.421 270.053 107.983 269.782 107.404L270.776 106.97C270.963 107.362 271.224 107.675 271.56 107.908C271.896 108.132 272.284 108.244 272.722 108.244C273.04 108.244 273.334 108.188 273.604 108.076C273.875 107.955 274.108 107.796 274.304 107.6C274.51 107.404 274.668 107.171 274.78 106.9C274.902 106.629 274.962 106.34 274.962 106.032C274.962 105.687 274.902 105.369 274.78 105.08C274.659 104.791 274.491 104.543 274.276 104.338C274.062 104.123 273.805 103.96 273.506 103.848C273.208 103.736 272.881 103.68 272.526 103.68C272.172 103.68 271.817 103.731 271.462 103.834C271.117 103.927 270.786 104.058 270.468 104.226L270.566 99.088H275.62V100.012Z" fill="#238F53"/>
<path d="M18.7904 148.102C18.7904 148.419 18.8417 148.709 18.9444 148.97C19.0564 149.231 19.2104 149.46 19.4064 149.656C19.6024 149.843 19.8357 149.987 20.1064 150.09C20.377 150.193 20.6757 150.244 21.0024 150.244C21.329 150.244 21.6277 150.193 21.8984 150.09C22.169 149.987 22.4024 149.843 22.5984 149.656C22.7944 149.46 22.9437 149.231 23.0464 148.97C23.1584 148.709 23.2144 148.419 23.2144 148.102C23.2144 147.785 23.1584 147.495 23.0464 147.234C22.9437 146.973 22.7944 146.749 22.5984 146.562C22.4024 146.375 22.169 146.231 21.8984 146.128C21.6277 146.016 21.329 145.96 21.0024 145.96C20.6757 145.96 20.377 146.016 20.1064 146.128C19.8357 146.231 19.6024 146.375 19.4064 146.562C19.2104 146.749 19.0564 146.973 18.9444 147.234C18.8417 147.495 18.7904 147.785 18.7904 148.102ZM19.7984 145.344L19.8264 145.372C19.985 145.26 20.195 145.176 20.4564 145.12C20.727 145.064 20.9744 145.036 21.1984 145.036C21.6277 145.036 22.0244 145.115 22.3884 145.274C22.7617 145.423 23.0837 145.633 23.3544 145.904C23.625 146.175 23.835 146.497 23.9844 146.87C24.143 147.243 24.2224 147.654 24.2224 148.102C24.2224 148.559 24.143 148.975 23.9844 149.348C23.8257 149.721 23.6017 150.043 23.3124 150.314C23.023 150.585 22.6824 150.795 22.2904 150.944C21.8984 151.093 21.469 151.168 21.0024 151.168C20.5357 151.168 20.1064 151.093 19.7144 150.944C19.3224 150.795 18.9817 150.585 18.6924 150.314C18.403 150.043 18.179 149.721 18.0204 149.348C17.8617 148.975 17.7824 148.559 17.7824 148.102C17.7824 147.551 17.8617 147.071 18.0204 146.66C18.1884 146.249 18.3937 145.843 18.6364 145.442L21.3104 141.088H22.5004L19.7984 145.344Z" fill="#238F53"/>
<path d="M65.7464 142.012L61.7564 151H60.6224L64.6964 142.012H59.8664V141.088H65.7464V142.012Z" fill="#238F53"/>
<path d="M107.13 148.214C107.13 147.925 107.079 147.659 106.976 147.416C106.874 147.164 106.729 146.949 106.542 146.772C106.365 146.585 106.141 146.441 105.87 146.338C105.609 146.235 105.32 146.184 105.002 146.184C104.676 146.184 104.382 146.235 104.12 146.338C103.859 146.441 103.635 146.585 103.448 146.772C103.271 146.949 103.131 147.164 103.028 147.416C102.926 147.659 102.874 147.925 102.874 148.214C102.874 148.503 102.926 148.774 103.028 149.026C103.131 149.269 103.271 149.483 103.448 149.67C103.635 149.847 103.859 149.987 104.12 150.09C104.382 150.193 104.676 150.244 105.002 150.244C105.32 150.244 105.609 150.193 105.87 150.09C106.141 149.987 106.365 149.847 106.542 149.67C106.729 149.483 106.874 149.269 106.976 149.026C107.079 148.774 107.13 148.503 107.13 148.214ZM106.766 143.594C106.766 143.342 106.72 143.109 106.626 142.894C106.542 142.679 106.421 142.497 106.262 142.348C106.104 142.189 105.917 142.068 105.702 141.984C105.488 141.891 105.254 141.844 105.002 141.844C104.75 141.844 104.517 141.891 104.302 141.984C104.088 142.068 103.901 142.189 103.742 142.348C103.584 142.497 103.458 142.679 103.364 142.894C103.28 143.109 103.238 143.342 103.238 143.594C103.238 143.846 103.28 144.079 103.364 144.294C103.458 144.509 103.584 144.695 103.742 144.854C103.901 145.003 104.088 145.125 104.302 145.218C104.517 145.302 104.75 145.344 105.002 145.344C105.254 145.344 105.488 145.302 105.702 145.218C105.917 145.125 106.104 145.003 106.262 144.854C106.421 144.695 106.542 144.509 106.626 144.294C106.72 144.079 106.766 143.846 106.766 143.594ZM103.714 145.722C103.5 145.647 103.299 145.54 103.112 145.4C102.935 145.251 102.781 145.078 102.65 144.882C102.52 144.686 102.417 144.471 102.342 144.238C102.268 144.005 102.23 143.762 102.23 143.51C102.23 143.118 102.305 142.763 102.454 142.446C102.604 142.119 102.804 141.844 103.056 141.62C103.308 141.396 103.602 141.223 103.938 141.102C104.274 140.981 104.629 140.92 105.002 140.92C105.376 140.92 105.73 140.981 106.066 141.102C106.402 141.223 106.696 141.396 106.948 141.62C107.2 141.844 107.401 142.119 107.55 142.446C107.7 142.763 107.774 143.118 107.774 143.51C107.774 143.762 107.737 144.005 107.662 144.238C107.588 144.471 107.485 144.686 107.354 144.882C107.224 145.078 107.065 145.251 106.878 145.4C106.701 145.54 106.505 145.647 106.29 145.722V145.75C106.85 145.899 107.298 146.207 107.634 146.674C107.97 147.141 108.138 147.701 108.138 148.354C108.138 148.783 108.05 149.171 107.872 149.516C107.704 149.861 107.476 150.16 107.186 150.412C106.906 150.655 106.575 150.841 106.192 150.972C105.819 151.103 105.422 151.168 105.002 151.168C104.582 151.168 104.181 151.103 103.798 150.972C103.425 150.841 103.094 150.655 102.804 150.412C102.524 150.16 102.296 149.861 102.118 149.516C101.95 149.171 101.866 148.783 101.866 148.354C101.866 147.701 102.034 147.141 102.37 146.674C102.706 146.207 103.154 145.899 103.714 145.75V145.722Z" fill="#238F53"/>
<path d="M149.214 143.986C149.214 143.669 149.158 143.379 149.046 143.118C148.944 142.857 148.794 142.633 148.598 142.446C148.402 142.259 148.169 142.115 147.898 142.012C147.628 141.9 147.329 141.844 147.002 141.844C146.676 141.844 146.377 141.9 146.106 142.012C145.836 142.115 145.602 142.259 145.406 142.446C145.21 142.633 145.056 142.857 144.944 143.118C144.842 143.379 144.79 143.669 144.79 143.986C144.79 144.303 144.842 144.593 144.944 144.854C145.056 145.115 145.21 145.344 145.406 145.54C145.602 145.727 145.836 145.871 146.106 145.974C146.377 146.077 146.676 146.128 147.002 146.128C147.329 146.128 147.628 146.077 147.898 145.974C148.169 145.871 148.402 145.727 148.598 145.54C148.794 145.344 148.944 145.115 149.046 144.854C149.158 144.593 149.214 144.303 149.214 143.986ZM148.206 146.744L148.178 146.716C148.02 146.828 147.805 146.912 147.534 146.968C147.273 147.024 147.03 147.052 146.806 147.052C146.377 147.052 145.976 146.977 145.602 146.828C145.238 146.669 144.921 146.455 144.65 146.184C144.38 145.913 144.165 145.591 144.006 145.218C143.857 144.845 143.782 144.434 143.782 143.986C143.782 143.529 143.862 143.113 144.02 142.74C144.179 142.367 144.403 142.045 144.692 141.774C144.982 141.503 145.322 141.293 145.714 141.144C146.106 140.995 146.536 140.92 147.002 140.92C147.469 140.92 147.898 140.995 148.29 141.144C148.682 141.293 149.023 141.503 149.312 141.774C149.602 142.045 149.826 142.367 149.984 142.74C150.143 143.113 150.222 143.529 150.222 143.986C150.222 144.537 150.138 145.017 149.97 145.428C149.812 145.839 149.611 146.245 149.368 146.646L146.694 151H145.504L148.206 146.744Z" fill="#238F53"/>
<path d="M186.093 151H185.085V142.348L183.307 143.916L182.677 143.16L185.197 141.088H186.093V151ZM192.892 141.844C192.351 141.844 191.921 141.989 191.604 142.278C191.296 142.567 191.063 142.927 190.904 143.356C190.745 143.785 190.643 144.243 190.596 144.728C190.559 145.213 190.54 145.652 190.54 146.044C190.54 146.436 190.559 146.875 190.596 147.36C190.643 147.845 190.745 148.303 190.904 148.732C191.063 149.161 191.296 149.521 191.604 149.81C191.921 150.099 192.351 150.244 192.892 150.244C193.433 150.244 193.858 150.099 194.166 149.81C194.483 149.521 194.721 149.161 194.88 148.732C195.039 148.303 195.137 147.845 195.174 147.36C195.221 146.875 195.244 146.436 195.244 146.044C195.244 145.652 195.221 145.213 195.174 144.728C195.137 144.243 195.039 143.785 194.88 143.356C194.721 142.927 194.483 142.567 194.166 142.278C193.858 141.989 193.433 141.844 192.892 141.844ZM192.892 140.92C193.601 140.92 194.175 141.083 194.614 141.41C195.053 141.737 195.393 142.152 195.636 142.656C195.879 143.16 196.042 143.715 196.126 144.322C196.21 144.919 196.252 145.493 196.252 146.044C196.252 146.595 196.21 147.173 196.126 147.78C196.042 148.377 195.879 148.928 195.636 149.432C195.393 149.936 195.053 150.351 194.614 150.678C194.175 151.005 193.601 151.168 192.892 151.168C192.183 151.168 191.609 151.005 191.17 150.678C190.731 150.351 190.391 149.936 190.148 149.432C189.905 148.928 189.742 148.377 189.658 147.78C189.574 147.173 189.532 146.595 189.532 146.044C189.532 145.493 189.574 144.919 189.658 144.322C189.742 143.715 189.905 143.16 190.148 142.656C190.391 142.152 190.731 141.737 191.17 141.41C191.609 141.083 192.183 140.92 192.892 140.92Z" fill="#238F53"/>
<path d="M228.093 151H227.085V142.348L225.307 143.916L224.677 143.16L227.197 141.088H228.093V151ZM235.872 151H234.864V142.348L233.086 143.916L232.456 143.16L234.976 141.088H235.872V151Z" fill="#238F53"/>
<path d="M270.093 151H269.085V142.348L267.307 143.916L266.677 143.16L269.197 141.088H270.093V151ZM279.972 151H273.672V149.838L277.62 145.82C277.769 145.671 277.919 145.512 278.068 145.344C278.217 145.176 278.353 144.999 278.474 144.812C278.595 144.625 278.693 144.429 278.768 144.224C278.843 144.019 278.88 143.804 278.88 143.58C278.88 143.309 278.829 143.067 278.726 142.852C278.633 142.637 278.497 142.455 278.32 142.306C278.143 142.157 277.937 142.045 277.704 141.97C277.471 141.886 277.223 141.844 276.962 141.844C276.458 141.844 276.029 141.984 275.674 142.264C275.319 142.544 275.091 142.922 274.988 143.398L273.924 143.286C274.064 142.549 274.4 141.97 274.932 141.55C275.473 141.13 276.127 140.92 276.892 140.92C277.293 140.92 277.671 140.976 278.026 141.088C278.39 141.191 278.707 141.349 278.978 141.564C279.258 141.779 279.477 142.049 279.636 142.376C279.804 142.693 279.888 143.067 279.888 143.496C279.888 143.879 279.827 144.229 279.706 144.546C279.594 144.863 279.445 145.162 279.258 145.442C279.071 145.722 278.857 145.988 278.614 146.24C278.381 146.492 278.138 146.739 277.886 146.982L274.764 150.076H279.972V151Z" fill="#238F53"/>
<path d="M18.0927 193H17.0847V184.348L15.3067 185.916L14.6767 185.16L17.1967 183.088H18.0927V193ZM23.856 187.344H24.374C24.6633 187.344 24.9387 187.311 25.2 187.246C25.4707 187.181 25.704 187.078 25.9 186.938C26.096 186.789 26.25 186.597 26.362 186.364C26.4833 186.131 26.544 185.851 26.544 185.524C26.544 184.992 26.3807 184.581 26.054 184.292C25.7367 183.993 25.2887 183.844 24.71 183.844C24.29 183.844 23.9213 183.937 23.604 184.124C23.2867 184.311 23.0253 184.581 22.82 184.936L21.938 184.488C22.2367 183.956 22.6147 183.564 23.072 183.312C23.5387 183.051 24.0753 182.92 24.682 182.92C25.074 182.92 25.4427 182.976 25.788 183.088C26.1333 183.2 26.4367 183.368 26.698 183.592C26.9593 183.807 27.1647 184.077 27.314 184.404C27.4727 184.721 27.552 185.085 27.552 185.496C27.552 185.767 27.5053 186.023 27.412 186.266C27.328 186.509 27.2067 186.728 27.048 186.924C26.8987 187.12 26.7213 187.293 26.516 187.442C26.3107 187.582 26.096 187.689 25.872 187.764L25.914 187.792C26.194 187.848 26.4507 187.955 26.684 188.114C26.9173 188.263 27.118 188.45 27.286 188.674C27.454 188.898 27.5847 189.15 27.678 189.43C27.7713 189.71 27.818 190.004 27.818 190.312C27.818 190.769 27.734 191.175 27.566 191.53C27.398 191.885 27.1693 192.183 26.88 192.426C26.5907 192.669 26.2547 192.855 25.872 192.986C25.4893 193.107 25.0833 193.168 24.654 193.168C23.926 193.168 23.2913 193.009 22.75 192.692C22.2087 192.375 21.8027 191.866 21.532 191.166L22.596 190.844C22.764 191.32 23.0113 191.675 23.338 191.908C23.674 192.132 24.1407 192.244 24.738 192.244C25.018 192.244 25.284 192.197 25.536 192.104C25.788 192.011 26.0073 191.88 26.194 191.712C26.39 191.535 26.5393 191.325 26.642 191.082C26.754 190.839 26.81 190.573 26.81 190.284C26.81 189.911 26.74 189.598 26.6 189.346C26.46 189.085 26.2733 188.875 26.04 188.716C25.8067 188.557 25.536 188.445 25.228 188.38C24.9293 188.305 24.6167 188.268 24.29 188.268H23.856V187.344Z" fill="#238F53"/>
<path d="M60.0927 193H59.0847V184.348L57.3067 185.916L56.6767 185.16L59.1967 183.088H60.0927V193ZM67.816 184.096H67.788L64.372 189.724H67.816V184.096ZM68.824 189.724H70.252V190.648H68.824V193H67.816V190.648H63.532V189.5L67.536 183.088H68.824V189.724Z" fill="#238F53"/>
<path d="M102.093 193H101.085V184.348L99.3067 185.916L98.6767 185.16L101.197 183.088H102.093V193ZM111.51 184.012H107.45L107.394 186.994C107.609 186.91 107.828 186.849 108.052 186.812C108.276 186.775 108.5 186.756 108.724 186.756C109.191 186.756 109.615 186.835 109.998 186.994C110.381 187.153 110.707 187.377 110.978 187.666C111.258 187.946 111.473 188.282 111.622 188.674C111.781 189.057 111.86 189.477 111.86 189.934C111.86 190.41 111.776 190.849 111.608 191.25C111.44 191.642 111.207 191.983 110.908 192.272C110.609 192.552 110.255 192.771 109.844 192.93C109.443 193.089 109.004 193.168 108.528 193.168C107.903 193.168 107.338 193.019 106.834 192.72C106.33 192.421 105.943 191.983 105.672 191.404L106.666 190.97C106.853 191.362 107.114 191.675 107.45 191.908C107.786 192.132 108.173 192.244 108.612 192.244C108.929 192.244 109.223 192.188 109.494 192.076C109.765 191.955 109.998 191.796 110.194 191.6C110.399 191.404 110.558 191.171 110.67 190.9C110.791 190.629 110.852 190.34 110.852 190.032C110.852 189.687 110.791 189.369 110.67 189.08C110.549 188.791 110.381 188.543 110.166 188.338C109.951 188.123 109.695 187.96 109.396 187.848C109.097 187.736 108.771 187.68 108.416 187.68C108.061 187.68 107.707 187.731 107.352 187.834C107.007 187.927 106.675 188.058 106.358 188.226L106.456 183.088H111.51V184.012Z" fill="#238F53"/>
<circle cx="147" cy="189" r="20" fill="#238F53"/>
<path d="M144.093 193H143.085V184.348L141.307 185.916L140.677 185.16L143.197 183.088H144.093V193ZM148.68 190.102C148.68 190.419 148.731 190.709 148.834 190.97C148.946 191.231 149.1 191.46 149.296 191.656C149.492 191.843 149.725 191.987 149.996 192.09C150.267 192.193 150.565 192.244 150.892 192.244C151.219 192.244 151.517 192.193 151.788 192.09C152.059 191.987 152.292 191.843 152.488 191.656C152.684 191.46 152.833 191.231 152.936 190.97C153.048 190.709 153.104 190.419 153.104 190.102C153.104 189.785 153.048 189.495 152.936 189.234C152.833 188.973 152.684 188.749 152.488 188.562C152.292 188.375 152.059 188.231 151.788 188.128C151.517 188.016 151.219 187.96 150.892 187.96C150.565 187.96 150.267 188.016 149.996 188.128C149.725 188.231 149.492 188.375 149.296 188.562C149.1 188.749 148.946 188.973 148.834 189.234C148.731 189.495 148.68 189.785 148.68 190.102ZM149.688 187.344L149.716 187.372C149.875 187.26 150.085 187.176 150.346 187.12C150.617 187.064 150.864 187.036 151.088 187.036C151.517 187.036 151.914 187.115 152.278 187.274C152.651 187.423 152.973 187.633 153.244 187.904C153.515 188.175 153.725 188.497 153.874 188.87C154.033 189.243 154.112 189.654 154.112 190.102C154.112 190.559 154.033 190.975 153.874 191.348C153.715 191.721 153.491 192.043 153.202 192.314C152.913 192.585 152.572 192.795 152.18 192.944C151.788 193.093 151.359 193.168 150.892 193.168C150.425 193.168 149.996 193.093 149.604 192.944C149.212 192.795 148.871 192.585 148.582 192.314C148.293 192.043 148.069 191.721 147.91 191.348C147.751 190.975 147.672 190.559 147.672 190.102C147.672 189.551 147.751 189.071 147.91 188.66C148.078 188.249 148.283 187.843 148.526 187.442L151.2 183.088H152.39L149.688 187.344Z" fill="white"/>
<path d="M186.093 193H185.085V184.348L183.307 185.916L182.677 185.16L185.197 183.088H186.093V193ZM195.636 184.012L191.646 193H190.512L194.586 184.012H189.756V183.088H195.636V184.012Z" fill="#238F53"/>
<path d="M228.093 193H227.085V184.348L225.307 185.916L224.677 185.16L227.197 183.088H228.093V193ZM237.02 190.214C237.02 189.925 236.969 189.659 236.866 189.416C236.763 189.164 236.619 188.949 236.432 188.772C236.255 188.585 236.031 188.441 235.76 188.338C235.499 188.235 235.209 188.184 234.892 188.184C234.565 188.184 234.271 188.235 234.01 188.338C233.749 188.441 233.525 188.585 233.338 188.772C233.161 188.949 233.021 189.164 232.918 189.416C232.815 189.659 232.764 189.925 232.764 190.214C232.764 190.503 232.815 190.774 232.918 191.026C233.021 191.269 233.161 191.483 233.338 191.67C233.525 191.847 233.749 191.987 234.01 192.09C234.271 192.193 234.565 192.244 234.892 192.244C235.209 192.244 235.499 192.193 235.76 192.09C236.031 191.987 236.255 191.847 236.432 191.67C236.619 191.483 236.763 191.269 236.866 191.026C236.969 190.774 237.02 190.503 237.02 190.214ZM236.656 185.594C236.656 185.342 236.609 185.109 236.516 184.894C236.432 184.679 236.311 184.497 236.152 184.348C235.993 184.189 235.807 184.068 235.592 183.984C235.377 183.891 235.144 183.844 234.892 183.844C234.64 183.844 234.407 183.891 234.192 183.984C233.977 184.068 233.791 184.189 233.632 184.348C233.473 184.497 233.347 184.679 233.254 184.894C233.17 185.109 233.128 185.342 233.128 185.594C233.128 185.846 233.17 186.079 233.254 186.294C233.347 186.509 233.473 186.695 233.632 186.854C233.791 187.003 233.977 187.125 234.192 187.218C234.407 187.302 234.64 187.344 234.892 187.344C235.144 187.344 235.377 187.302 235.592 187.218C235.807 187.125 235.993 187.003 236.152 186.854C236.311 186.695 236.432 186.509 236.516 186.294C236.609 186.079 236.656 185.846 236.656 185.594ZM233.604 187.722C233.389 187.647 233.189 187.54 233.002 187.4C232.825 187.251 232.671 187.078 232.54 186.882C232.409 186.686 232.307 186.471 232.232 186.238C232.157 186.005 232.12 185.762 232.12 185.51C232.12 185.118 232.195 184.763 232.344 184.446C232.493 184.119 232.694 183.844 232.946 183.62C233.198 183.396 233.492 183.223 233.828 183.102C234.164 182.981 234.519 182.92 234.892 182.92C235.265 182.92 235.62 182.981 235.956 183.102C236.292 183.223 236.586 183.396 236.838 183.62C237.09 183.844 237.291 184.119 237.44 184.446C237.589 184.763 237.664 185.118 237.664 185.51C237.664 185.762 237.627 186.005 237.552 186.238C237.477 186.471 237.375 186.686 237.244 186.882C237.113 187.078 236.955 187.251 236.768 187.4C236.591 187.54 236.395 187.647 236.18 187.722V187.75C236.74 187.899 237.188 188.207 237.524 188.674C237.86 189.141 238.028 189.701 238.028 190.354C238.028 190.783 237.939 191.171 237.762 191.516C237.594 191.861 237.365 192.16 237.076 192.412C236.796 192.655 236.465 192.841 236.082 192.972C235.709 193.103 235.312 193.168 234.892 193.168C234.472 193.168 234.071 193.103 233.688 192.972C233.315 192.841 232.983 192.655 232.694 192.412C232.414 192.16 232.185 191.861 232.008 191.516C231.84 191.171 231.756 190.783 231.756 190.354C231.756 189.701 231.924 189.141 232.26 188.674C232.596 188.207 233.044 187.899 233.604 187.75V187.722Z" fill="#238F53"/>
<path d="M270.093 193H269.085V184.348L267.307 185.916L266.677 185.16L269.197 183.088H270.093V193ZM279.104 185.986C279.104 185.669 279.048 185.379 278.936 185.118C278.833 184.857 278.684 184.633 278.488 184.446C278.292 184.259 278.059 184.115 277.788 184.012C277.517 183.9 277.219 183.844 276.892 183.844C276.565 183.844 276.267 183.9 275.996 184.012C275.725 184.115 275.492 184.259 275.296 184.446C275.1 184.633 274.946 184.857 274.834 185.118C274.731 185.379 274.68 185.669 274.68 185.986C274.68 186.303 274.731 186.593 274.834 186.854C274.946 187.115 275.1 187.344 275.296 187.54C275.492 187.727 275.725 187.871 275.996 187.974C276.267 188.077 276.565 188.128 276.892 188.128C277.219 188.128 277.517 188.077 277.788 187.974C278.059 187.871 278.292 187.727 278.488 187.54C278.684 187.344 278.833 187.115 278.936 186.854C279.048 186.593 279.104 186.303 279.104 185.986ZM278.096 188.744L278.068 188.716C277.909 188.828 277.695 188.912 277.424 188.968C277.163 189.024 276.92 189.052 276.696 189.052C276.267 189.052 275.865 188.977 275.492 188.828C275.128 188.669 274.811 188.455 274.54 188.184C274.269 187.913 274.055 187.591 273.896 187.218C273.747 186.845 273.672 186.434 273.672 185.986C273.672 185.529 273.751 185.113 273.91 184.74C274.069 184.367 274.293 184.045 274.582 183.774C274.871 183.503 275.212 183.293 275.604 183.144C275.996 182.995 276.425 182.92 276.892 182.92C277.359 182.92 277.788 182.995 278.18 183.144C278.572 183.293 278.913 183.503 279.202 183.774C279.491 184.045 279.715 184.367 279.874 184.74C280.033 185.113 280.112 185.529 280.112 185.986C280.112 186.537 280.028 187.017 279.86 187.428C279.701 187.839 279.501 188.245 279.258 188.646L276.584 193H275.394L278.096 188.744Z" fill="#238F53"/>
<path d="M20.1927 235H13.8927V233.838L17.8407 229.82C17.99 229.671 18.1394 229.512 18.2887 229.344C18.438 229.176 18.5734 228.999 18.6947 228.812C18.816 228.625 18.914 228.429 18.9887 228.224C19.0634 228.019 19.1007 227.804 19.1007 227.58C19.1007 227.309 19.0494 227.067 18.9467 226.852C18.8534 226.637 18.718 226.455 18.5407 226.306C18.3634 226.157 18.158 226.045 17.9247 225.97C17.6914 225.886 17.444 225.844 17.1827 225.844C16.6787 225.844 16.2494 225.984 15.8947 226.264C15.54 226.544 15.3114 226.922 15.2087 227.398L14.1447 227.286C14.2847 226.549 14.6207 225.97 15.1527 225.55C15.694 225.13 16.3474 224.92 17.1127 224.92C17.514 224.92 17.892 224.976 18.2467 225.088C18.6107 225.191 18.928 225.349 19.1987 225.564C19.4787 225.779 19.698 226.049 19.8567 226.376C20.0247 226.693 20.1087 227.067 20.1087 227.496C20.1087 227.879 20.048 228.229 19.9267 228.546C19.8147 228.863 19.6654 229.162 19.4787 229.442C19.292 229.722 19.0774 229.988 18.8347 230.24C18.6014 230.492 18.3587 230.739 18.1067 230.982L14.9847 234.076H20.1927V235ZM24.892 225.844C24.3507 225.844 23.9213 225.989 23.604 226.278C23.296 226.567 23.0627 226.927 22.904 227.356C22.7453 227.785 22.6427 228.243 22.596 228.728C22.5587 229.213 22.54 229.652 22.54 230.044C22.54 230.436 22.5587 230.875 22.596 231.36C22.6427 231.845 22.7453 232.303 22.904 232.732C23.0627 233.161 23.296 233.521 23.604 233.81C23.9213 234.099 24.3507 234.244 24.892 234.244C25.4333 234.244 25.858 234.099 26.166 233.81C26.4833 233.521 26.7213 233.161 26.88 232.732C27.0387 232.303 27.1367 231.845 27.174 231.36C27.2207 230.875 27.244 230.436 27.244 230.044C27.244 229.652 27.2207 229.213 27.174 228.728C27.1367 228.243 27.0387 227.785 26.88 227.356C26.7213 226.927 26.4833 226.567 26.166 226.278C25.858 225.989 25.4333 225.844 24.892 225.844ZM24.892 224.92C25.6013 224.92 26.1753 225.083 26.614 225.41C27.0527 225.737 27.3933 226.152 27.636 226.656C27.8787 227.16 28.042 227.715 28.126 228.322C28.21 228.919 28.252 229.493 28.252 230.044C28.252 230.595 28.21 231.173 28.126 231.78C28.042 232.377 27.8787 232.928 27.636 233.432C27.3933 233.936 27.0527 234.351 26.614 234.678C26.1753 235.005 25.6013 235.168 24.892 235.168C24.1827 235.168 23.6087 235.005 23.17 234.678C22.7313 234.351 22.3907 233.936 22.148 233.432C21.9053 232.928 21.742 232.377 21.658 231.78C21.574 231.173 21.532 230.595 21.532 230.044C21.532 229.493 21.574 228.919 21.658 228.322C21.742 227.715 21.9053 227.16 22.148 226.656C22.3907 226.152 22.7313 225.737 23.17 225.41C23.6087 225.083 24.1827 224.92 24.892 224.92Z" fill="#238F53"/>
<path d="M62.1927 235H55.8927V233.838L59.8407 229.82C59.99 229.671 60.1394 229.512 60.2887 229.344C60.438 229.176 60.5734 228.999 60.6947 228.812C60.816 228.625 60.914 228.429 60.9887 228.224C61.0634 228.019 61.1007 227.804 61.1007 227.58C61.1007 227.309 61.0494 227.067 60.9467 226.852C60.8534 226.637 60.718 226.455 60.5407 226.306C60.3634 226.157 60.158 226.045 59.9247 225.97C59.6914 225.886 59.444 225.844 59.1827 225.844C58.6787 225.844 58.2494 225.984 57.8947 226.264C57.54 226.544 57.3114 226.922 57.2087 227.398L56.1447 227.286C56.2847 226.549 56.6207 225.97 57.1527 225.55C57.694 225.13 58.3474 224.92 59.1127 224.92C59.514 224.92 59.892 224.976 60.2467 225.088C60.6107 225.191 60.928 225.349 61.1987 225.564C61.4787 225.779 61.698 226.049 61.8567 226.376C62.0247 226.693 62.1087 227.067 62.1087 227.496C62.1087 227.879 62.048 228.229 61.9267 228.546C61.8147 228.863 61.6654 229.162 61.4787 229.442C61.292 229.722 61.0774 229.988 60.8347 230.24C60.6014 230.492 60.3587 230.739 60.1067 230.982L56.9847 234.076H62.1927V235ZM67.872 235H66.864V226.348L65.086 227.916L64.456 227.16L66.976 225.088H67.872V235Z" fill="#238F53"/>
<path d="M104.193 235H97.8927V233.838L101.841 229.82C101.99 229.671 102.139 229.512 102.289 229.344C102.438 229.176 102.573 228.999 102.695 228.812C102.816 228.625 102.914 228.429 102.989 228.224C103.063 228.019 103.101 227.804 103.101 227.58C103.101 227.309 103.049 227.067 102.947 226.852C102.853 226.637 102.718 226.455 102.541 226.306C102.363 226.157 102.158 226.045 101.925 225.97C101.691 225.886 101.444 225.844 101.183 225.844C100.679 225.844 100.249 225.984 99.8947 226.264C99.54 226.544 99.3114 226.922 99.2087 227.398L98.1447 227.286C98.2847 226.549 98.6207 225.97 99.1527 225.55C99.694 225.13 100.347 224.92 101.113 224.92C101.514 224.92 101.892 224.976 102.247 225.088C102.611 225.191 102.928 225.349 103.199 225.564C103.479 225.779 103.698 226.049 103.857 226.376C104.025 226.693 104.109 227.067 104.109 227.496C104.109 227.879 104.048 228.229 103.927 228.546C103.815 228.863 103.665 229.162 103.479 229.442C103.292 229.722 103.077 229.988 102.835 230.24C102.601 230.492 102.359 230.739 102.107 230.982L98.9847 234.076H104.193V235ZM111.972 235H105.672V233.838L109.62 229.82C109.769 229.671 109.919 229.512 110.068 229.344C110.217 229.176 110.353 228.999 110.474 228.812C110.595 228.625 110.693 228.429 110.768 228.224C110.843 228.019 110.88 227.804 110.88 227.58C110.88 227.309 110.829 227.067 110.726 226.852C110.633 226.637 110.497 226.455 110.32 226.306C110.143 226.157 109.937 226.045 109.704 225.97C109.471 225.886 109.223 225.844 108.962 225.844C108.458 225.844 108.029 225.984 107.674 226.264C107.319 226.544 107.091 226.922 106.988 227.398L105.924 227.286C106.064 226.549 106.4 225.97 106.932 225.55C107.473 225.13 108.127 224.92 108.892 224.92C109.293 224.92 109.671 224.976 110.026 225.088C110.39 225.191 110.707 225.349 110.978 225.564C111.258 225.779 111.477 226.049 111.636 226.376C111.804 226.693 111.888 227.067 111.888 227.496C111.888 227.879 111.827 228.229 111.706 228.546C111.594 228.863 111.445 229.162 111.258 229.442C111.071 229.722 110.857 229.988 110.614 230.24C110.381 230.492 110.138 230.739 109.886 230.982L106.764 234.076H111.972V235Z" fill="#238F53"/>
<path d="M146.193 235H139.893V233.838L143.841 229.82C143.99 229.671 144.139 229.512 144.289 229.344C144.438 229.176 144.573 228.999 144.695 228.812C144.816 228.625 144.914 228.429 144.989 228.224C145.063 228.019 145.101 227.804 145.101 227.58C145.101 227.309 145.049 227.067 144.947 226.852C144.853 226.637 144.718 226.455 144.541 226.306C144.363 226.157 144.158 226.045 143.925 225.97C143.691 225.886 143.444 225.844 143.183 225.844C142.679 225.844 142.249 225.984 141.895 226.264C141.54 226.544 141.311 226.922 141.209 227.398L140.145 227.286C140.285 226.549 140.621 225.97 141.153 225.55C141.694 225.13 142.347 224.92 143.113 224.92C143.514 224.92 143.892 224.976 144.247 225.088C144.611 225.191 144.928 225.349 145.199 225.564C145.479 225.779 145.698 226.049 145.857 226.376C146.025 226.693 146.109 227.067 146.109 227.496C146.109 227.879 146.048 228.229 145.927 228.546C145.815 228.863 145.665 229.162 145.479 229.442C145.292 229.722 145.077 229.988 144.835 230.24C144.601 230.492 144.359 230.739 144.107 230.982L140.985 234.076H146.193V235ZM149.856 229.344H150.374C150.663 229.344 150.939 229.311 151.2 229.246C151.471 229.181 151.704 229.078 151.9 228.938C152.096 228.789 152.25 228.597 152.362 228.364C152.483 228.131 152.544 227.851 152.544 227.524C152.544 226.992 152.381 226.581 152.054 226.292C151.737 225.993 151.289 225.844 150.71 225.844C150.29 225.844 149.921 225.937 149.604 226.124C149.287 226.311 149.025 226.581 148.82 226.936L147.938 226.488C148.237 225.956 148.615 225.564 149.072 225.312C149.539 225.051 150.075 224.92 150.682 224.92C151.074 224.92 151.443 224.976 151.788 225.088C152.133 225.2 152.437 225.368 152.698 225.592C152.959 225.807 153.165 226.077 153.314 226.404C153.473 226.721 153.552 227.085 153.552 227.496C153.552 227.767 153.505 228.023 153.412 228.266C153.328 228.509 153.207 228.728 153.048 228.924C152.899 229.12 152.721 229.293 152.516 229.442C152.311 229.582 152.096 229.689 151.872 229.764L151.914 229.792C152.194 229.848 152.451 229.955 152.684 230.114C152.917 230.263 153.118 230.45 153.286 230.674C153.454 230.898 153.585 231.15 153.678 231.43C153.771 231.71 153.818 232.004 153.818 232.312C153.818 232.769 153.734 233.175 153.566 233.53C153.398 233.885 153.169 234.183 152.88 234.426C152.591 234.669 152.255 234.855 151.872 234.986C151.489 235.107 151.083 235.168 150.654 235.168C149.926 235.168 149.291 235.009 148.75 234.692C148.209 234.375 147.803 233.866 147.532 233.166L148.596 232.844C148.764 233.32 149.011 233.675 149.338 233.908C149.674 234.132 150.141 234.244 150.738 234.244C151.018 234.244 151.284 234.197 151.536 234.104C151.788 234.011 152.007 233.88 152.194 233.712C152.39 233.535 152.539 233.325 152.642 233.082C152.754 232.839 152.81 232.573 152.81 232.284C152.81 231.911 152.74 231.598 152.6 231.346C152.46 231.085 152.273 230.875 152.04 230.716C151.807 230.557 151.536 230.445 151.228 230.38C150.929 230.305 150.617 230.268 150.29 230.268H149.856V229.344Z" fill="#238F53"/>
<path d="M188.193 235H181.893V233.838L185.841 229.82C185.99 229.671 186.139 229.512 186.289 229.344C186.438 229.176 186.573 228.999 186.695 228.812C186.816 228.625 186.914 228.429 186.989 228.224C187.063 228.019 187.101 227.804 187.101 227.58C187.101 227.309 187.049 227.067 186.947 226.852C186.853 226.637 186.718 226.455 186.541 226.306C186.363 226.157 186.158 226.045 185.925 225.97C185.691 225.886 185.444 225.844 185.183 225.844C184.679 225.844 184.249 225.984 183.895 226.264C183.54 226.544 183.311 226.922 183.209 227.398L182.145 227.286C182.285 226.549 182.621 225.97 183.153 225.55C183.694 225.13 184.347 224.92 185.113 224.92C185.514 224.92 185.892 224.976 186.247 225.088C186.611 225.191 186.928 225.349 187.199 225.564C187.479 225.779 187.698 226.049 187.857 226.376C188.025 226.693 188.109 227.067 188.109 227.496C188.109 227.879 188.048 228.229 187.927 228.546C187.815 228.863 187.665 229.162 187.479 229.442C187.292 229.722 187.077 229.988 186.835 230.24C186.601 230.492 186.359 230.739 186.107 230.982L182.985 234.076H188.193V235ZM193.816 226.096H193.788L190.372 231.724H193.816V226.096ZM194.824 231.724H196.252V232.648H194.824V235H193.816V232.648H189.532V231.5L193.536 225.088H194.824V231.724Z" fill="#238F53"/>
<path d="M230.193 235H223.893V233.838L227.841 229.82C227.99 229.671 228.139 229.512 228.289 229.344C228.438 229.176 228.573 228.999 228.695 228.812C228.816 228.625 228.914 228.429 228.989 228.224C229.063 228.019 229.101 227.804 229.101 227.58C229.101 227.309 229.049 227.067 228.947 226.852C228.853 226.637 228.718 226.455 228.541 226.306C228.363 226.157 228.158 226.045 227.925 225.97C227.691 225.886 227.444 225.844 227.183 225.844C226.679 225.844 226.249 225.984 225.895 226.264C225.54 226.544 225.311 226.922 225.209 227.398L224.145 227.286C224.285 226.549 224.621 225.97 225.153 225.55C225.694 225.13 226.347 224.92 227.113 224.92C227.514 224.92 227.892 224.976 228.247 225.088C228.611 225.191 228.928 225.349 229.199 225.564C229.479 225.779 229.698 226.049 229.857 226.376C230.025 226.693 230.109 227.067 230.109 227.496C230.109 227.879 230.048 228.229 229.927 228.546C229.815 228.863 229.665 229.162 229.479 229.442C229.292 229.722 229.077 229.988 228.835 230.24C228.601 230.492 228.359 230.739 228.107 230.982L224.985 234.076H230.193V235ZM237.51 226.012H233.45L233.394 228.994C233.609 228.91 233.828 228.849 234.052 228.812C234.276 228.775 234.5 228.756 234.724 228.756C235.191 228.756 235.615 228.835 235.998 228.994C236.381 229.153 236.707 229.377 236.978 229.666C237.258 229.946 237.473 230.282 237.622 230.674C237.781 231.057 237.86 231.477 237.86 231.934C237.86 232.41 237.776 232.849 237.608 233.25C237.44 233.642 237.207 233.983 236.908 234.272C236.609 234.552 236.255 234.771 235.844 234.93C235.443 235.089 235.004 235.168 234.528 235.168C233.903 235.168 233.338 235.019 232.834 234.72C232.33 234.421 231.943 233.983 231.672 233.404L232.666 232.97C232.853 233.362 233.114 233.675 233.45 233.908C233.786 234.132 234.173 234.244 234.612 234.244C234.929 234.244 235.223 234.188 235.494 234.076C235.765 233.955 235.998 233.796 236.194 233.6C236.399 233.404 236.558 233.171 236.67 232.9C236.791 232.629 236.852 232.34 236.852 232.032C236.852 231.687 236.791 231.369 236.67 231.08C236.549 230.791 236.381 230.543 236.166 230.338C235.951 230.123 235.695 229.96 235.396 229.848C235.097 229.736 234.771 229.68 234.416 229.68C234.061 229.68 233.707 229.731 233.352 229.834C233.007 229.927 232.675 230.058 232.358 230.226L232.456 225.088H237.51V226.012Z" fill="#238F53"/>
<path d="M272.193 235H265.893V233.838L269.841 229.82C269.99 229.671 270.139 229.512 270.289 229.344C270.438 229.176 270.573 228.999 270.695 228.812C270.816 228.625 270.914 228.429 270.989 228.224C271.063 228.019 271.101 227.804 271.101 227.58C271.101 227.309 271.049 227.067 270.947 226.852C270.853 226.637 270.718 226.455 270.541 226.306C270.363 226.157 270.158 226.045 269.925 225.97C269.691 225.886 269.444 225.844 269.183 225.844C268.679 225.844 268.249 225.984 267.895 226.264C267.54 226.544 267.311 226.922 267.209 227.398L266.145 227.286C266.285 226.549 266.621 225.97 267.153 225.55C267.694 225.13 268.347 224.92 269.113 224.92C269.514 224.92 269.892 224.976 270.247 225.088C270.611 225.191 270.928 225.349 271.199 225.564C271.479 225.779 271.698 226.049 271.857 226.376C272.025 226.693 272.109 227.067 272.109 227.496C272.109 227.879 272.048 228.229 271.927 228.546C271.815 228.863 271.665 229.162 271.479 229.442C271.292 229.722 271.077 229.988 270.835 230.24C270.601 230.492 270.359 230.739 270.107 230.982L266.985 234.076H272.193V235ZM274.68 232.102C274.68 232.419 274.731 232.709 274.834 232.97C274.946 233.231 275.1 233.46 275.296 233.656C275.492 233.843 275.725 233.987 275.996 234.09C276.267 234.193 276.565 234.244 276.892 234.244C277.219 234.244 277.517 234.193 277.788 234.09C278.059 233.987 278.292 233.843 278.488 233.656C278.684 233.46 278.833 233.231 278.936 232.97C279.048 232.709 279.104 232.419 279.104 232.102C279.104 231.785 279.048 231.495 278.936 231.234C278.833 230.973 278.684 230.749 278.488 230.562C278.292 230.375 278.059 230.231 277.788 230.128C277.517 230.016 277.219 229.96 276.892 229.96C276.565 229.96 276.267 230.016 275.996 230.128C275.725 230.231 275.492 230.375 275.296 230.562C275.1 230.749 274.946 230.973 274.834 231.234C274.731 231.495 274.68 231.785 274.68 232.102ZM275.688 229.344L275.716 229.372C275.875 229.26 276.085 229.176 276.346 229.12C276.617 229.064 276.864 229.036 277.088 229.036C277.517 229.036 277.914 229.115 278.278 229.274C278.651 229.423 278.973 229.633 279.244 229.904C279.515 230.175 279.725 230.497 279.874 230.87C280.033 231.243 280.112 231.654 280.112 232.102C280.112 232.559 280.033 232.975 279.874 233.348C279.715 233.721 279.491 234.043 279.202 234.314C278.913 234.585 278.572 234.795 278.18 234.944C277.788 235.093 277.359 235.168 276.892 235.168C276.425 235.168 275.996 235.093 275.604 234.944C275.212 234.795 274.871 234.585 274.582 234.314C274.293 234.043 274.069 233.721 273.91 233.348C273.751 232.975 273.672 232.559 273.672 232.102C273.672 231.551 273.751 231.071 273.91 230.66C274.078 230.249 274.283 229.843 274.526 229.442L277.2 225.088H278.39L275.688 229.344Z" fill="#238F53"/>
<path d="M20.1927 277H13.8927V275.838L17.8407 271.82C17.99 271.671 18.1394 271.512 18.2887 271.344C18.438 271.176 18.5734 270.999 18.6947 270.812C18.816 270.625 18.914 270.429 18.9887 270.224C19.0634 270.019 19.1007 269.804 19.1007 269.58C19.1007 269.309 19.0494 269.067 18.9467 268.852C18.8534 268.637 18.718 268.455 18.5407 268.306C18.3634 268.157 18.158 268.045 17.9247 267.97C17.6914 267.886 17.444 267.844 17.1827 267.844C16.6787 267.844 16.2494 267.984 15.8947 268.264C15.54 268.544 15.3114 268.922 15.2087 269.398L14.1447 269.286C14.2847 268.549 14.6207 267.97 15.1527 267.55C15.694 267.13 16.3474 266.92 17.1127 266.92C17.514 266.92 17.892 266.976 18.2467 267.088C18.6107 267.191 18.928 267.349 19.1987 267.564C19.4787 267.779 19.698 268.049 19.8567 268.376C20.0247 268.693 20.1087 269.067 20.1087 269.496C20.1087 269.879 20.048 270.229 19.9267 270.546C19.8147 270.863 19.6654 271.162 19.4787 271.442C19.292 271.722 19.0774 271.988 18.8347 272.24C18.6014 272.492 18.3587 272.739 18.1067 272.982L14.9847 276.076H20.1927V277ZM27.636 268.012L23.646 277H22.512L26.586 268.012H21.756V267.088H27.636V268.012Z" fill="#238F53"/>
<path d="M62.1927 277H55.8927V275.838L59.8407 271.82C59.99 271.671 60.1394 271.512 60.2887 271.344C60.438 271.176 60.5734 270.999 60.6947 270.812C60.816 270.625 60.914 270.429 60.9887 270.224C61.0634 270.019 61.1007 269.804 61.1007 269.58C61.1007 269.309 61.0494 269.067 60.9467 268.852C60.8534 268.637 60.718 268.455 60.5407 268.306C60.3634 268.157 60.158 268.045 59.9247 267.97C59.6914 267.886 59.444 267.844 59.1827 267.844C58.6787 267.844 58.2494 267.984 57.8947 268.264C57.54 268.544 57.3114 268.922 57.2087 269.398L56.1447 269.286C56.2847 268.549 56.6207 267.97 57.1527 267.55C57.694 267.13 58.3474 266.92 59.1127 266.92C59.514 266.92 59.892 266.976 60.2467 267.088C60.6107 267.191 60.928 267.349 61.1987 267.564C61.4787 267.779 61.698 268.049 61.8567 268.376C62.0247 268.693 62.1087 269.067 62.1087 269.496C62.1087 269.879 62.048 270.229 61.9267 270.546C61.8147 270.863 61.6654 271.162 61.4787 271.442C61.292 271.722 61.0774 271.988 60.8347 272.24C60.6014 272.492 60.3587 272.739 60.1067 272.982L56.9847 276.076H62.1927V277ZM69.02 274.214C69.02 273.925 68.9687 273.659 68.866 273.416C68.7633 273.164 68.6187 272.949 68.432 272.772C68.2547 272.585 68.0307 272.441 67.76 272.338C67.4987 272.235 67.2093 272.184 66.892 272.184C66.5653 272.184 66.2713 272.235 66.01 272.338C65.7487 272.441 65.5247 272.585 65.338 272.772C65.1607 272.949 65.0207 273.164 64.918 273.416C64.8153 273.659 64.764 273.925 64.764 274.214C64.764 274.503 64.8153 274.774 64.918 275.026C65.0207 275.269 65.1607 275.483 65.338 275.67C65.5247 275.847 65.7487 275.987 66.01 276.09C66.2713 276.193 66.5653 276.244 66.892 276.244C67.2093 276.244 67.4987 276.193 67.76 276.09C68.0307 275.987 68.2547 275.847 68.432 275.67C68.6187 275.483 68.7633 275.269 68.866 275.026C68.9687 274.774 69.02 274.503 69.02 274.214ZM68.656 269.594C68.656 269.342 68.6093 269.109 68.516 268.894C68.432 268.679 68.3107 268.497 68.152 268.348C67.9933 268.189 67.8067 268.068 67.592 267.984C67.3773 267.891 67.144 267.844 66.892 267.844C66.64 267.844 66.4067 267.891 66.192 267.984C65.9773 268.068 65.7907 268.189 65.632 268.348C65.4733 268.497 65.3473 268.679 65.254 268.894C65.17 269.109 65.128 269.342 65.128 269.594C65.128 269.846 65.17 270.079 65.254 270.294C65.3473 270.509 65.4733 270.695 65.632 270.854C65.7907 271.003 65.9773 271.125 66.192 271.218C66.4067 271.302 66.64 271.344 66.892 271.344C67.144 271.344 67.3773 271.302 67.592 271.218C67.8067 271.125 67.9933 271.003 68.152 270.854C68.3107 270.695 68.432 270.509 68.516 270.294C68.6093 270.079 68.656 269.846 68.656 269.594ZM65.604 271.722C65.3893 271.647 65.1887 271.54 65.002 271.4C64.8247 271.251 64.6707 271.078 64.54 270.882C64.4093 270.686 64.3067 270.471 64.232 270.238C64.1573 270.005 64.12 269.762 64.12 269.51C64.12 269.118 64.1947 268.763 64.344 268.446C64.4933 268.119 64.694 267.844 64.946 267.62C65.198 267.396 65.492 267.223 65.828 267.102C66.164 266.981 66.5187 266.92 66.892 266.92C67.2653 266.92 67.62 266.981 67.956 267.102C68.292 267.223 68.586 267.396 68.838 267.62C69.09 267.844 69.2907 268.119 69.44 268.446C69.5893 268.763 69.664 269.118 69.664 269.51C69.664 269.762 69.6267 270.005 69.552 270.238C69.4773 270.471 69.3747 270.686 69.244 270.882C69.1133 271.078 68.9547 271.251 68.768 271.4C68.5907 271.54 68.3947 271.647 68.18 271.722V271.75C68.74 271.899 69.188 272.207 69.524 272.674C69.86 273.141 70.028 273.701 70.028 274.354C70.028 274.783 69.9393 275.171 69.762 275.516C69.594 275.861 69.3653 276.16 69.076 276.412C68.796 276.655 68.4647 276.841 68.082 276.972C67.7087 277.103 67.312 277.168 66.892 277.168C66.472 277.168 66.0707 277.103 65.688 276.972C65.3147 276.841 64.9833 276.655 64.694 276.412C64.414 276.16 64.1853 275.861 64.008 275.516C63.84 275.171 63.756 274.783 63.756 274.354C63.756 273.701 63.924 273.141 64.26 272.674C64.596 272.207 65.044 271.899 65.604 271.75V271.722Z" fill="#238F53"/>
</g>
<defs>
<clipPath id="clip0_1965_2149">
<rect width="294" height="294" fill="white"/>
</clipPath>
</defs>
</svg>
