<svg width="17" height="17" viewBox="0 0 17 17" fill="none" xmlns="http://www.w3.org/2000/svg">
<g id="&#240;&#159;&#146;&#156; Left Icon">
<path id="Vector" d="M15.2931 12.2502L9.79934 2.7502C9.66782 2.52172 9.4784 2.33194 9.25017 2.19998C9.02194 2.06802 8.76297 1.99854 8.49934 1.99854C8.23571 1.99854 7.97673 2.06802 7.7485 2.19998C7.52028 2.33194 7.33086 2.52172 7.19934 2.7502L1.70559 12.2502C1.57213 12.4775 1.50121 12.7361 1.50002 12.9997C1.49882 13.2633 1.56741 13.5225 1.69881 13.7511C1.83021 13.9796 2.01974 14.1693 2.24815 14.3008C2.47657 14.4324 2.73574 14.5012 2.99934 14.5002H13.9993C14.2629 14.5012 14.5221 14.4324 14.7505 14.3008C14.9789 14.1693 15.1685 13.9796 15.2999 13.7511C15.4313 13.5225 15.4999 13.2633 15.4987 12.9997C15.4975 12.7361 15.4265 12.4775 15.2931 12.2502ZM7.99934 7.0002C7.99934 6.8676 8.05202 6.74042 8.14579 6.64665C8.23955 6.55288 8.36673 6.5002 8.49934 6.5002C8.63195 6.5002 8.75912 6.55288 8.85289 6.64665C8.94666 6.74042 8.99934 6.8676 8.99934 7.0002V9.5002C8.99934 9.63281 8.94666 9.75999 8.85289 9.85376C8.75912 9.94753 8.63195 10.0002 8.49934 10.0002C8.36673 10.0002 8.23955 9.94753 8.14579 9.85376C8.05202 9.75999 7.99934 9.63281 7.99934 9.5002V7.0002ZM8.49934 12.5002C8.351 12.5002 8.206 12.4562 8.08266 12.3738C7.95932 12.2914 7.86319 12.1743 7.80643 12.0372C7.74966 11.9002 7.73481 11.7494 7.76375 11.6039C7.79269 11.4584 7.86412 11.3248 7.96901 11.2199C8.0739 11.115 8.20753 11.0436 8.35302 11.0146C8.49851 10.9857 8.64931 11.0005 8.78635 11.0573C8.9234 11.1141 9.04053 11.2102 9.12294 11.3335C9.20535 11.4569 9.24934 11.6019 9.24934 11.7502C9.24934 11.9491 9.17032 12.1399 9.02967 12.2805C8.88902 12.4212 8.69825 12.5002 8.49934 12.5002Z" fill="#FFAD0D"/>
</g>
</svg>
