<svg width="23" height="23" viewBox="0 0 23 23" fill="none" xmlns="http://www.w3.org/2000/svg">
<g id="Chart">
<g id="Vector" filter="url(#filter0_b_1922_8183)">
<path fill-rule="evenodd" clip-rule="evenodd" d="M11.0453 1.25C12.8818 1.24999 14.3214 1.24999 15.4635 1.37373C16.6291 1.50001 17.5734 1.76232 18.3798 2.34815C18.8679 2.70281 19.2972 3.13209 19.6518 3.62024C20.2377 4.42656 20.5 5.37094 20.6263 6.53648C20.75 7.67859 20.75 9.11824 20.75 10.9547V11.0453C20.75 12.8818 20.75 14.3214 20.6263 15.4635C20.5 16.6291 20.2377 17.5734 19.6518 18.3798C19.2972 18.8679 18.8679 19.2972 18.3798 19.6518C17.5734 20.2377 16.6291 20.5 15.4635 20.6263C14.3214 20.75 12.8818 20.75 11.0453 20.75H10.9547C9.11817 20.75 7.67859 20.75 6.53648 20.6263C5.37094 20.5 4.42656 20.2377 3.62024 19.6518C3.13209 19.2972 2.70281 18.8679 2.34815 18.3798C1.76232 17.5734 1.50001 16.6291 1.37373 15.4635C1.24999 14.3214 1.24999 12.8818 1.25 11.0453V10.9548C1.24999 9.11822 1.24999 7.67861 1.37373 6.53648C1.50001 5.37094 1.76232 4.42656 2.34815 3.62024C2.70281 3.13209 3.13209 2.70281 3.62024 2.34815C4.42656 1.76232 5.37094 1.50001 6.53648 1.37373C7.67861 1.24999 9.11821 1.24999 10.9547 1.25H11.0453Z" fill="#B8EBCD"/>
<path fill-rule="evenodd" clip-rule="evenodd" d="M11.0453 1.25C12.8818 1.24999 14.3214 1.24999 15.4635 1.37373C16.6291 1.50001 17.5734 1.76232 18.3798 2.34815C18.8679 2.70281 19.2972 3.13209 19.6518 3.62024C20.2377 4.42656 20.5 5.37094 20.6263 6.53648C20.75 7.67859 20.75 9.11824 20.75 10.9547V11.0453C20.75 12.8818 20.75 14.3214 20.6263 15.4635C20.5 16.6291 20.2377 17.5734 19.6518 18.3798C19.2972 18.8679 18.8679 19.2972 18.3798 19.6518C17.5734 20.2377 16.6291 20.5 15.4635 20.6263C14.3214 20.75 12.8818 20.75 11.0453 20.75H10.9547C9.11817 20.75 7.67859 20.75 6.53648 20.6263C5.37094 20.5 4.42656 20.2377 3.62024 19.6518C3.13209 19.2972 2.70281 18.8679 2.34815 18.3798C1.76232 17.5734 1.50001 16.6291 1.37373 15.4635C1.24999 14.3214 1.24999 12.8818 1.25 11.0453V10.9548C1.24999 9.11822 1.24999 7.67861 1.37373 6.53648C1.50001 5.37094 1.76232 4.42656 2.34815 3.62024C2.70281 3.13209 3.13209 2.70281 3.62024 2.34815C4.42656 1.76232 5.37094 1.50001 6.53648 1.37373C7.67861 1.24999 9.11821 1.24999 10.9547 1.25H11.0453Z" stroke="url(#paint0_linear_1922_8183)" stroke-linecap="round"/>
</g>
<g id="Vector_2" filter="url(#filter1_d_1922_8183)">
<path fill-rule="evenodd" clip-rule="evenodd" d="M11.75 6C11.75 5.58579 11.4142 5.25 11 5.25C10.5858 5.25 10.25 5.58579 10.25 6V16C10.25 16.4142 10.5858 16.75 11 16.75C11.4142 16.75 11.75 16.4142 11.75 16V6ZM15.75 10C15.75 9.58579 15.4142 9.25 15 9.25C14.5858 9.25 14.25 9.58579 14.25 10V16C14.25 16.4142 14.5858 16.75 15 16.75C15.4142 16.75 15.75 16.4142 15.75 16V10ZM7.75 12C7.75 11.5858 7.41421 11.25 7 11.25C6.58579 11.25 6.25 11.5858 6.25 12V16C6.25 16.4142 6.58579 16.75 7 16.75C7.41421 16.75 7.75 16.4142 7.75 16V12Z" fill="#207144"/>
</g>
</g>
<defs>
<filter id="filter0_b_1922_8183" x="-23.25" y="-23.25" width="68.5" height="68.5" filterUnits="userSpaceOnUse" color-interpolation-filters="sRGB">
<feFlood flood-opacity="0" result="BackgroundImageFix"/>
<feGaussianBlur in="BackgroundImageFix" stdDeviation="12"/>
<feComposite in2="SourceAlpha" operator="in" result="effect1_backgroundBlur_1922_8183"/>
<feBlend mode="normal" in="SourceGraphic" in2="effect1_backgroundBlur_1922_8183" result="shape"/>
</filter>
<filter id="filter1_d_1922_8183" x="3.25" y="2.25" width="25.5" height="27.5" filterUnits="userSpaceOnUse" color-interpolation-filters="sRGB">
<feFlood flood-opacity="0" result="BackgroundImageFix"/>
<feColorMatrix in="SourceAlpha" type="matrix" values="0 0 0 0 0 0 0 0 0 0 0 0 0 0 0 0 0 0 127 0" result="hardAlpha"/>
<feOffset dx="5" dy="5"/>
<feGaussianBlur stdDeviation="4"/>
<feColorMatrix type="matrix" values="0 0 0 0 0.176471 0 0 0 0 0.556863 0 0 0 0 0.678431 0 0 0 0.5 0"/>
<feBlend mode="normal" in2="BackgroundImageFix" result="effect1_dropShadow_1922_8183"/>
<feBlend mode="normal" in="SourceGraphic" in2="effect1_dropShadow_1922_8183" result="shape"/>
</filter>
<linearGradient id="paint0_linear_1922_8183" x1="1.25" y1="1.25" x2="20.7599" y2="20.7401" gradientUnits="userSpaceOnUse">
<stop stop-color="white" stop-opacity="0.25"/>
<stop offset="1" stop-color="white" stop-opacity="0"/>
</linearGradient>
</defs>
</svg>
