<svg width="14" height="15" viewBox="0 0 14 15" fill="none" xmlns="http://www.w3.org/2000/svg">
<g id="Delete 2">
<g id="Vector" filter="url(#filter0_b_1940_376)">
<path fill-rule="evenodd" clip-rule="evenodd" d="M11.1698 9.44301L11.3446 8.18633C11.3985 7.79967 11.4476 7.4462 11.4914 7.12196C11.5812 6.45562 11.6262 6.12245 11.4269 5.89456C11.2277 5.66667 10.8853 5.66667 10.2005 5.66667H3.7992C3.11438 5.66667 2.77198 5.66667 2.57275 5.89456C2.37353 6.12245 2.41846 6.45562 2.50832 7.12196C2.55206 7.4463 2.60122 7.79953 2.65504 8.18632L2.82994 9.44302C3.02001 10.8088 3.11505 11.4917 3.31657 12.0402C3.6934 13.0659 4.34479 13.8298 5.12227 14.1579C5.53804 14.3333 6.02531 14.3333 6.99984 14.3333C7.97437 14.3333 8.46165 14.3333 8.87741 14.1579C9.65489 13.8298 10.3063 13.0659 10.6831 12.0402C10.8846 11.4917 10.9797 10.8088 11.1698 9.44301Z" fill="#E23B3B"/>
<path d="M6.99984 0.5C5.25094 0.5 3.83317 1.91776 3.83317 3.66667V3.83333H1.6665C1.39036 3.83333 1.1665 4.05719 1.1665 4.33333C1.1665 4.60948 1.39036 4.83333 1.6665 4.83333H12.3332C12.6093 4.83333 12.8332 4.60948 12.8332 4.33333C12.8332 4.05719 12.6093 3.83333 12.3332 3.83333H10.1665V3.66667C10.1665 1.91776 8.74874 0.5 6.99984 0.5Z" fill="#E23B3B"/>
<path fill-rule="evenodd" clip-rule="evenodd" d="M11.1698 9.44301L11.3446 8.18633C11.3985 7.79967 11.4476 7.4462 11.4914 7.12196C11.5812 6.45562 11.6262 6.12245 11.4269 5.89456C11.2277 5.66667 10.8853 5.66667 10.2005 5.66667H3.7992C3.11438 5.66667 2.77198 5.66667 2.57275 5.89456C2.37353 6.12245 2.41846 6.45562 2.50832 7.12196C2.55206 7.4463 2.60122 7.79953 2.65504 8.18632L2.82994 9.44302C3.02001 10.8088 3.11505 11.4917 3.31657 12.0402C3.6934 13.0659 4.34479 13.8298 5.12227 14.1579C5.53804 14.3333 6.02531 14.3333 6.99984 14.3333C7.97437 14.3333 8.46165 14.3333 8.87741 14.1579C9.65489 13.8298 10.3063 13.0659 10.6831 12.0402C10.8846 11.4917 10.9797 10.8088 11.1698 9.44301Z" stroke="url(#paint0_linear_1940_376)" stroke-linecap="round"/>
<path d="M6.99984 0.5C5.25094 0.5 3.83317 1.91776 3.83317 3.66667V3.83333H1.6665C1.39036 3.83333 1.1665 4.05719 1.1665 4.33333C1.1665 4.60948 1.39036 4.83333 1.6665 4.83333H12.3332C12.6093 4.83333 12.8332 4.60948 12.8332 4.33333C12.8332 4.05719 12.6093 3.83333 12.3332 3.83333H10.1665V3.66667C10.1665 1.91776 8.74874 0.5 6.99984 0.5Z" stroke="url(#paint1_linear_1940_376)" stroke-linecap="round"/>
</g>
<path id="Vector_2" fill-rule="evenodd" clip-rule="evenodd" d="M6.1665 7C6.1665 6.72386 5.94265 6.5 5.6665 6.5C5.39036 6.5 5.1665 6.72386 5.1665 7V12.3333C5.1665 12.6095 5.39036 12.8333 5.6665 12.8333C5.94265 12.8333 6.1665 12.6095 6.1665 12.3333V7ZM8.83317 7C8.83317 6.72386 8.60931 6.5 8.33317 6.5C8.05703 6.5 7.83317 6.72386 7.83317 7V12.3333C7.83317 12.6095 8.05703 12.8333 8.33317 12.8333C8.60931 12.8333 8.83317 12.6095 8.83317 12.3333V7Z" fill="url(#paint2_linear_1940_376)"/>
</g>
<defs>
<filter id="filter0_b_1940_376" x="-23.3335" y="-24" width="60.6665" height="62.8335" filterUnits="userSpaceOnUse" color-interpolation-filters="sRGB">
<feFlood flood-opacity="0" result="BackgroundImageFix"/>
<feGaussianBlur in="BackgroundImageFix" stdDeviation="12"/>
<feComposite in2="SourceAlpha" operator="in" result="effect1_backgroundBlur_1940_376"/>
<feBlend mode="normal" in="SourceGraphic" in2="effect1_backgroundBlur_1940_376" result="shape"/>
</filter>
<linearGradient id="paint0_linear_1940_376" x1="1.1665" y1="0.5" x2="14.8061" y2="11.9916" gradientUnits="userSpaceOnUse">
<stop stop-color="white" stop-opacity="0.25"/>
<stop offset="1" stop-color="white" stop-opacity="0"/>
</linearGradient>
<linearGradient id="paint1_linear_1940_376" x1="1.1665" y1="0.5" x2="14.8061" y2="11.9916" gradientUnits="userSpaceOnUse">
<stop stop-color="white" stop-opacity="0.25"/>
<stop offset="1" stop-color="white" stop-opacity="0"/>
</linearGradient>
<linearGradient id="paint2_linear_1940_376" x1="7.03071" y1="14.1826" x2="14.5365" y2="9.92297" gradientUnits="userSpaceOnUse">
<stop stop-color="white"/>
<stop offset="1" stop-color="white" stop-opacity="0.2"/>
</linearGradient>
</defs>
</svg>
