<svg width="22" height="23" viewBox="0 0 22 23" fill="none" xmlns="http://www.w3.org/2000/svg">
<g id="Document Align Left 13">
<g id="Vector" filter="url(#filter0_b_1922_8186)">
<path fill-rule="evenodd" clip-rule="evenodd" d="M19 10C19 6.25027 19 4.3754 18.0451 3.06107C17.7367 2.6366 17.3634 2.26331 16.9389 1.95492C15.6246 1 13.7497 1 10 1C6.25027 1 4.3754 1 3.06107 1.95492C2.6366 2.26331 2.26331 2.6366 1.95491 3.06107C1 4.3754 1 6.25027 1 10V12C1 12.8389 1 13.584 1.01069 14.25L1.08082 14.25C1.93284 14.2499 2.45182 14.2499 2.8995 14.3208C5.35988 14.7105 7.28952 16.6401 7.67921 19.1005C7.75011 19.5482 7.75007 20.0672 7.75 20.9192L7.75 20.9893C8.41596 21 9.16106 21 10 21C13.7497 21 15.6246 21 16.9389 20.0451C17.3634 19.7367 17.7367 19.3634 18.0451 18.9389C19 17.6246 19 15.7497 19 12V10Z" fill="#B8EBCD"/>
<path d="M2.66485 15.8023C2.35646 15.7535 1.97568 15.7501 1.06534 15.75C1.15974 17.1896 1.39057 18.1622 1.95491 18.9389C2.26331 19.3634 2.6366 19.7367 3.06107 20.0451C3.83783 20.6094 4.81037 20.8403 6.25 20.9347C6.24987 20.0243 6.24652 19.6435 6.19768 19.3352C5.90965 17.5166 4.48339 16.0904 2.66485 15.8023Z" fill="#B8EBCD"/>
<path d="M0.510759 14.258L0.51866 14.75L1.01071 14.75L1.08084 14.75H1.08086C1.9488 14.7499 2.42158 14.7513 2.82128 14.8146C5.06772 15.1704 6.82956 16.9323 7.18536 19.1787C7.24867 19.5784 7.25007 20.0512 7.25 20.9191L7.25 20.9893L7.24998 21.4813L7.74197 21.4892C8.41205 21.5 9.16059 21.5 9.99734 21.5H10H10.0309C11.8796 21.5 13.308 21.5 14.4366 21.3777C15.5809 21.2538 16.4762 20.9993 17.2328 20.4496C17.6997 20.1104 18.1104 19.6997 18.4496 19.2328C18.9993 18.4762 19.2538 17.5809 19.3777 16.4366C19.5 15.308 19.5 13.8796 19.5 12.0309V12V10V9.96912C19.5 8.12038 19.5 6.69204 19.3777 5.5634C19.2538 4.41914 18.9993 3.52379 18.4496 2.76718C18.1104 2.30026 17.6997 1.88964 17.2328 1.55041L16.9389 1.95491L17.2328 1.55041C16.4762 1.0007 15.5809 0.746247 14.4366 0.622273C13.308 0.499993 11.8796 0.499996 10.0309 0.5H10H9.96914C8.12039 0.499996 6.69204 0.499993 5.5634 0.622273C4.41914 0.746247 3.52379 1.0007 2.76718 1.55041C2.30026 1.88964 1.88964 2.30026 1.55041 2.76718C1.0007 3.52379 0.746247 4.41914 0.622273 5.5634C0.499993 6.69204 0.499996 8.12039 0.5 9.96914V10V12V12.003C0.5 12.8396 0.5 13.5881 0.510759 14.258ZM1.06541 15.25L0.531468 15.2499L0.566408 15.7827C0.662637 17.2501 0.901332 18.3394 1.55041 19.2328C1.88964 19.6997 2.30026 20.1104 2.76718 20.4496C3.66056 21.0987 4.74989 21.3374 6.21728 21.4336L6.75007 21.4685L6.75 20.9346C6.74987 20.0427 6.74804 19.6138 6.69152 19.2569C6.3696 17.2244 4.77555 15.6304 2.74306 15.3085C2.38619 15.252 1.95731 15.2501 1.06541 15.25Z" stroke="url(#paint0_linear_1922_8186)" stroke-linecap="round"/>
</g>
<g id="Vector_2" filter="url(#filter1_d_1922_8186)">
<path fill-rule="evenodd" clip-rule="evenodd" d="M6 6.25C5.58579 6.25 5.25 6.58579 5.25 7C5.25 7.41421 5.58579 7.75 6 7.75H9C9.41421 7.75 9.75 7.41421 9.75 7C9.75 6.58579 9.41421 6.25 9 6.25H6ZM5.25 11C5.25 11.4142 5.58579 11.75 6 11.75L14 11.75C14.4142 11.75 14.75 11.4142 14.75 11C14.75 10.5858 14.4142 10.25 14 10.25L6 10.25C5.58579 10.25 5.25 10.5858 5.25 11Z" fill="#207144"/>
</g>
</g>
<defs>
<filter id="filter0_b_1922_8186" x="-24.0024" y="-24" width="68.0024" height="70.0024" filterUnits="userSpaceOnUse" color-interpolation-filters="sRGB">
<feFlood flood-opacity="0" result="BackgroundImageFix"/>
<feGaussianBlur in="BackgroundImageFix" stdDeviation="12"/>
<feComposite in2="SourceAlpha" operator="in" result="effect1_backgroundBlur_1922_8186"/>
<feBlend mode="normal" in="SourceGraphic" in2="effect1_backgroundBlur_1922_8186" result="shape"/>
</filter>
<filter id="filter1_d_1922_8186" x="2.25" y="3.25" width="25.5" height="21.5" filterUnits="userSpaceOnUse" color-interpolation-filters="sRGB">
<feFlood flood-opacity="0" result="BackgroundImageFix"/>
<feColorMatrix in="SourceAlpha" type="matrix" values="0 0 0 0 0 0 0 0 0 0 0 0 0 0 0 0 0 0 127 0" result="hardAlpha"/>
<feOffset dx="5" dy="5"/>
<feGaussianBlur stdDeviation="4"/>
<feColorMatrix type="matrix" values="0 0 0 0 0.176471 0 0 0 0 0.556863 0 0 0 0 0.678431 0 0 0 0.5 0"/>
<feBlend mode="normal" in2="BackgroundImageFix" result="effect1_dropShadow_1922_8186"/>
<feBlend mode="normal" in="SourceGraphic" in2="effect1_dropShadow_1922_8186" result="shape"/>
</filter>
<linearGradient id="paint0_linear_1922_8186" x1="1" y1="1" x2="20.8975" y2="18.8896" gradientUnits="userSpaceOnUse">
<stop stop-color="white" stop-opacity="0.25"/>
<stop offset="1" stop-color="white" stop-opacity="0"/>
</linearGradient>
</defs>
</svg>
