<svg width="122" height="24" viewBox="0 0 122 24" fill="none" xmlns="http://www.w3.org/2000/svg">
<path d="M5.936 7.838C5.74 7.52067 5.47867 7.292 5.152 7.152C4.82533 7.00267 4.48467 6.928 4.13 6.928C3.86867 6.928 3.612 6.96067 3.36 7.026C3.108 7.09133 2.87933 7.18933 2.674 7.32C2.478 7.45067 2.31933 7.62333 2.198 7.838C2.07667 8.05267 2.016 8.30467 2.016 8.594C2.016 8.818 2.04867 9.01867 2.114 9.196C2.18867 9.364 2.30533 9.518 2.464 9.658C2.62267 9.798 2.83733 9.92867 3.108 10.05C3.37867 10.1713 3.71 10.2927 4.102 10.414C4.48467 10.5353 4.85333 10.666 5.208 10.806C5.572 10.946 5.88933 11.1233 6.16 11.338C6.44 11.5527 6.65933 11.8233 6.818 12.15C6.986 12.4673 7.07 12.8687 7.07 13.354C7.07 13.8487 6.972 14.278 6.776 14.642C6.58 15.006 6.31867 15.3093 5.992 15.552C5.67467 15.7853 5.306 15.958 4.886 16.07C4.466 16.1913 4.032 16.252 3.584 16.252C3.29467 16.252 3.00533 16.224 2.716 16.168C2.42667 16.1213 2.14667 16.0467 1.876 15.944C1.61467 15.832 1.36733 15.692 1.134 15.524C0.900667 15.3467 0.7 15.132 0.532 14.88L1.54 14.054C1.75467 14.418 2.05333 14.6933 2.436 14.88C2.81867 15.0667 3.22467 15.16 3.654 15.16C3.906 15.16 4.158 15.1227 4.41 15.048C4.67133 14.9733 4.90467 14.866 5.11 14.726C5.31533 14.5767 5.48333 14.3947 5.614 14.18C5.74467 13.9653 5.81 13.718 5.81 13.438C5.81 13.13 5.75867 12.8827 5.656 12.696C5.55333 12.5 5.39467 12.332 5.18 12.192C4.96533 12.052 4.69467 11.926 4.368 11.814C4.04133 11.702 3.65867 11.5713 3.22 11.422C2.86533 11.31 2.53867 11.184 2.24 11.044C1.94133 10.8947 1.68 10.7173 1.456 10.512C1.24133 10.2973 1.06867 10.0453 0.938 9.756C0.816667 9.45733 0.756 9.10267 0.756 8.692C0.756 8.216 0.849333 7.80067 1.036 7.446C1.22267 7.09133 1.47467 6.79733 1.792 6.564C2.10933 6.32133 2.46867 6.13933 2.87 6.018C3.27133 5.89667 3.69133 5.836 4.13 5.836C4.69 5.836 5.19867 5.92467 5.656 6.102C6.12267 6.27 6.538 6.56867 6.902 6.998L5.936 7.838ZM12.3993 10.372H10.4673V13.648C10.4673 13.8627 10.472 14.0633 10.4813 14.25C10.4906 14.4273 10.528 14.586 10.5933 14.726C10.6586 14.8567 10.7566 14.964 10.8873 15.048C11.018 15.1227 11.2046 15.16 11.4473 15.16C11.606 15.16 11.7693 15.1413 11.9373 15.104C12.1053 15.0667 12.264 15.0107 12.4133 14.936L12.4553 15.93C12.2686 16.014 12.0586 16.0747 11.8253 16.112C11.6013 16.1493 11.3866 16.168 11.1813 16.168C10.7893 16.168 10.4766 16.1167 10.2433 16.014C10.01 15.9113 9.82796 15.7667 9.6973 15.58C9.56663 15.3933 9.47796 15.1647 9.4313 14.894C9.39396 14.614 9.3753 14.306 9.3753 13.97V10.372H7.9473V9.448H9.3753V7.586H10.4673V9.448H12.3993V10.372ZM13.6532 10.288C13.9892 9.94267 14.3858 9.69067 14.8432 9.532C15.3098 9.364 15.7812 9.28 16.2572 9.28C17.2278 9.28 17.9278 9.50867 18.3572 9.966C18.7865 10.4233 19.0012 11.1187 19.0012 12.052V14.866C19.0012 15.0527 19.0105 15.2487 19.0292 15.454C19.0478 15.65 19.0712 15.832 19.0992 16H18.0492C18.0118 15.8507 17.9885 15.6873 17.9792 15.51C17.9792 15.3233 17.9792 15.16 17.9792 15.02H17.9512C17.7365 15.356 17.4472 15.6313 17.0832 15.846C16.7285 16.0607 16.2992 16.168 15.7952 16.168C15.4592 16.168 15.1418 16.126 14.8432 16.042C14.5538 15.958 14.2972 15.8367 14.0732 15.678C13.8585 15.51 13.6858 15.3047 13.5552 15.062C13.4245 14.8193 13.3592 14.5393 13.3592 14.222C13.3592 13.6807 13.4992 13.256 13.7792 12.948C14.0592 12.64 14.4045 12.4113 14.8152 12.262C15.2352 12.1127 15.6832 12.0193 16.1592 11.982C16.6445 11.9447 17.0878 11.926 17.4892 11.926H17.9092V11.73C17.9092 11.254 17.7645 10.8947 17.4752 10.652C17.1952 10.4093 16.7985 10.288 16.2852 10.288C15.9305 10.288 15.5805 10.3487 15.2352 10.47C14.8992 10.582 14.6005 10.7593 14.3392 11.002L13.6532 10.288ZM16.8172 12.85C16.1172 12.85 15.5618 12.948 15.1512 13.144C14.7405 13.34 14.5352 13.662 14.5352 14.11C14.5352 14.5207 14.6705 14.8147 14.9412 14.992C15.2212 15.16 15.5665 15.244 15.9772 15.244C16.2945 15.244 16.5698 15.1927 16.8032 15.09C17.0458 14.978 17.2465 14.8333 17.4052 14.656C17.5638 14.4787 17.6852 14.2733 17.7692 14.04C17.8532 13.7973 17.8998 13.5407 17.9092 13.27V12.85H16.8172ZM24.5809 10.372H22.6489V13.648C22.6489 13.8627 22.6536 14.0633 22.6629 14.25C22.6723 14.4273 22.7096 14.586 22.7749 14.726C22.8403 14.8567 22.9383 14.964 23.0689 15.048C23.1996 15.1227 23.3863 15.16 23.6289 15.16C23.7876 15.16 23.9509 15.1413 24.1189 15.104C24.2869 15.0667 24.4456 15.0107 24.5949 14.936L24.6369 15.93C24.4503 16.014 24.2403 16.0747 24.0069 16.112C23.7829 16.1493 23.5683 16.168 23.3629 16.168C22.9709 16.168 22.6583 16.1167 22.4249 16.014C22.1916 15.9113 22.0096 15.7667 21.8789 15.58C21.7483 15.3933 21.6596 15.1647 21.6129 14.894C21.5756 14.614 21.5569 14.306 21.5569 13.97V10.372H20.1289V9.448H21.5569V7.586H22.6489V9.448H24.5809V10.372ZM31.7708 14.81C31.3788 15.314 30.9495 15.6687 30.4828 15.874C30.0161 16.07 29.4748 16.168 28.8588 16.168C28.3455 16.168 27.8835 16.0793 27.4728 15.902C27.0621 15.7153 26.7121 15.468 26.4228 15.16C26.1428 14.852 25.9235 14.488 25.7648 14.068C25.6155 13.648 25.5408 13.2 25.5408 12.724C25.5408 12.22 25.6248 11.758 25.7928 11.338C25.9608 10.9087 26.1941 10.5447 26.4928 10.246C26.7915 9.938 27.1461 9.7 27.5568 9.532C27.9675 9.364 28.4155 9.28 28.9008 9.28C29.3581 9.28 29.7781 9.35933 30.1608 9.518C30.5435 9.66733 30.8701 9.89133 31.1408 10.19C31.4208 10.4793 31.6355 10.8387 31.7848 11.268C31.9341 11.688 32.0088 12.1687 32.0088 12.71V13.06H26.7168C26.7355 13.34 26.8008 13.6107 26.9128 13.872C27.0341 14.124 27.1881 14.348 27.3748 14.544C27.5615 14.7307 27.7808 14.88 28.0328 14.992C28.2848 15.104 28.5601 15.16 28.8588 15.16C29.3348 15.16 29.7361 15.076 30.0628 14.908C30.3895 14.74 30.6835 14.4927 30.9448 14.166L31.7708 14.81ZM30.8328 12.136C30.8141 11.576 30.6321 11.128 30.2868 10.792C29.9415 10.456 29.4655 10.288 28.8588 10.288C28.2521 10.288 27.7621 10.456 27.3888 10.792C27.0155 11.128 26.7915 11.576 26.7168 12.136H30.8328Z" fill="#455C7D"/>
<path d="M118.625 9.75L113 15.375L107.375 9.75" stroke="#233149" stroke-width="2" stroke-linecap="round" stroke-linejoin="round"/>
</svg>
