<svg width="12" height="15" viewBox="0 0 12 15" fill="none" xmlns="http://www.w3.org/2000/svg">
<g id="Edit 1">
<g id="Vector" filter="url(#filter0_b_1940_270)">
<path d="M8.70213 2.55017L8.76217 2.58484C9.28092 2.88431 9.71349 3.13404 10.0302 3.37847C10.3646 3.63646 10.6299 3.93259 10.741 4.34738C10.8522 4.76217 10.7705 5.1513 10.6099 5.5419C10.4985 5.81301 10.3346 6.11766 10.1372 6.46518L9.71369 6.21344L9.70822 6.21024L5.09135 3.54469L4.65959 3.29022C4.85965 2.94949 5.0399 2.65847 5.21737 2.4285C5.47536 2.09418 5.77149 1.82883 6.18628 1.71769C6.60107 1.60655 6.9902 1.68828 7.3808 1.84882C7.75084 2.00091 8.18341 2.25067 8.70213 2.55017Z" fill="#4CC27E"/>
<path d="M4.15864 4.15573L1.83999 8.17167C1.64147 8.51487 1.48449 8.78624 1.42634 9.09491C1.36818 9.40358 1.41564 9.71347 1.47566 10.1054L1.49183 10.2113C1.60262 10.9389 1.69394 11.5386 1.83167 11.9934C1.97572 12.469 2.19716 12.8807 2.63267 13.1321C3.06819 13.3836 3.53543 13.3695 4.01935 13.2564C4.48206 13.1483 5.04709 12.9276 5.73257 12.6597L5.8324 12.6208C6.20182 12.4768 6.49392 12.3629 6.73216 12.1582C6.9704 11.9535 7.12692 11.6819 7.32488 11.3384L9.63804 7.33179L9.20547 7.07468L4.58553 4.40735L4.15864 4.15573Z" fill="#4CC27E"/>
<path d="M10.3179 7.15422L10.3201 7.15552L10.572 6.71216C10.77 6.36362 10.9478 6.035 11.0724 5.73197C11.2541 5.28989 11.3749 4.78099 11.224 4.21797C11.0732 3.65496 10.7141 3.27464 10.3357 2.98263C9.99227 2.7176 9.53554 2.45395 9.03747 2.16643L9.01217 2.15182L9.01215 2.15181L8.95214 2.11717L8.95213 2.11716L8.92683 2.10255C8.42881 1.81498 7.9721 1.55126 7.57087 1.38635C7.12878 1.20466 6.61989 1.08387 6.05687 1.23473C5.49385 1.38559 5.11354 1.74464 4.82153 2.12304C4.62311 2.38015 4.42921 2.69508 4.22842 3.03705L3.97567 3.46751L3.97788 3.46881L3.72563 3.90572L1.40719 7.92131C1.40048 7.93291 1.39375 7.94453 1.387 7.95618C1.20439 8.2715 1.00916 8.60862 0.934983 9.00233L1.42634 9.09491L0.934983 9.00233C0.860802 9.39605 0.919968 9.7811 0.975309 10.1413C0.977342 10.1545 0.979369 10.1677 0.981384 10.1808C0.981397 10.1809 0.981409 10.181 0.981421 10.1811L0.997527 10.2866L0.997555 10.2868L1.00256 10.3196C1.1092 11.02 1.20496 11.649 1.35314 12.1383C1.5138 12.6688 1.78883 13.2223 2.38267 13.5651C2.97651 13.908 3.59337 13.8694 4.13311 13.7433C4.63092 13.627 5.22352 13.3954 5.8834 13.1376L5.91436 13.1255L5.91454 13.1254L6.01398 13.0866C6.02646 13.0818 6.03897 13.0769 6.05152 13.072C6.39109 12.9398 6.75413 12.7986 7.05801 12.5375L6.73216 12.1582L7.05801 12.5375C7.36189 12.2764 7.55623 11.9387 7.73801 11.6229C7.74469 11.6113 7.75135 11.5997 7.75801 11.5882C7.75804 11.5881 7.75807 11.5881 7.7581 11.588L10.0711 7.58178L10.3179 7.15422ZM4.83748 3.97544L4.83747 3.97546L4.41797 3.72819L4.83748 3.97544Z" stroke="url(#paint0_linear_1940_270)" stroke-linecap="round"/>
</g>
</g>
<defs>
<filter id="filter0_b_1940_270" x="-23.5996" y="-23.3335" width="59.3921" height="61.6675" filterUnits="userSpaceOnUse" color-interpolation-filters="sRGB">
<feFlood flood-opacity="0" result="BackgroundImageFix"/>
<feGaussianBlur in="BackgroundImageFix" stdDeviation="12"/>
<feComposite in2="SourceAlpha" operator="in" result="effect1_backgroundBlur_1940_270"/>
<feBlend mode="normal" in="SourceGraphic" in2="effect1_backgroundBlur_1940_270" result="shape"/>
</filter>
<linearGradient id="paint0_linear_1940_270" x1="1.3999" y1="1.6665" x2="12.8016" y2="10.8355" gradientUnits="userSpaceOnUse">
<stop stop-color="white" stop-opacity="0.25"/>
<stop offset="1" stop-color="white" stop-opacity="0"/>
</linearGradient>
</defs>
</svg>
