<svg width="18" height="23" viewBox="0 0 18 23" fill="none" xmlns="http://www.w3.org/2000/svg">
<g id="Notification 1">
<g id="Vector">
<path d="M8.09992 0.25C4.70436 0.25 2.07718 3.22603 2.49834 6.59536L2.5777 7.23021C2.69382 8.15917 2.35449 9.08706 1.66648 9.72195C0.240802 11.0375 -0.155293 13.1315 0.691357 14.8769L0.794708 15.09C1.58388 16.7169 3.23318 17.75 5.04141 17.75H13.2622C14.8219 17.75 16.2736 16.9532 17.111 15.6373C18.2931 13.7799 17.98 11.3432 16.3667 9.84497L16.3229 9.80421C15.5843 9.11833 15.2207 8.11913 15.3457 7.11901L15.4103 6.60208C15.832 3.22918 13.202 0.25 9.80283 0.25H8.09992Z" fill="#238F53"/>
<path d="M6.78333 19.55C6.5348 19.2186 6.0647 19.1515 5.73333 19.4C5.40196 19.6485 5.3348 20.1186 5.58333 20.45L5.88333 20.85C7.53333 23.05 10.8333 23.05 12.4833 20.85L12.7833 20.45C13.0319 20.1186 12.9647 19.6485 12.6333 19.4C12.302 19.1515 11.8319 19.2186 11.5833 19.55L11.2833 19.95C10.2333 21.35 8.13333 21.35 7.08333 19.95L6.78333 19.55Z" fill="#238F53"/>
</g>
</g>
</svg>
