<svg width="14" height="12" viewBox="0 0 14 12" fill="none" xmlns="http://www.w3.org/2000/svg">
<g id="Show">
<g id="Vector">
<path d="M5.49967 5.99984C5.49967 5.17141 6.17125 4.49984 6.99967 4.49984C7.8281 4.49984 8.49967 5.17141 8.49967 5.99984C8.49967 6.82826 7.8281 7.49984 6.99967 7.49984C6.17125 7.49984 5.49967 6.82826 5.49967 5.99984Z" fill="#238F53"/>
<path fill-rule="evenodd" clip-rule="evenodd" d="M3.23416 1.73031C4.28184 0.872499 5.57237 0.166504 6.99968 0.166504C8.42698 0.166504 9.71752 0.872499 10.7652 1.73031C11.8186 2.59281 12.6799 3.65227 13.2587 4.45851L13.3065 4.5249C13.6549 5.00906 13.9417 5.40761 13.9417 5.99984C13.9417 6.59207 13.6549 6.99061 13.3065 7.47478L13.2587 7.54116C12.6799 8.3474 11.8186 9.40686 10.7652 10.2694C9.71752 11.1272 8.42698 11.8332 6.99968 11.8332C5.57237 11.8332 4.28184 11.1272 3.23416 10.2694C2.18076 9.40686 1.31942 8.3474 0.740619 7.54116L0.692884 7.47478C0.344442 6.99061 0.0576172 6.59207 0.0576172 5.99984C0.0576172 5.40761 0.344442 5.00906 0.692884 4.5249L0.740619 4.45851C1.31942 3.65227 2.18076 2.59281 3.23416 1.73031ZM6.99967 3.49984C5.61896 3.49984 4.49967 4.61912 4.49967 5.99984C4.49967 7.38055 5.61896 8.49984 6.99967 8.49984C8.38039 8.49984 9.49967 7.38055 9.49967 5.99984C9.49967 4.61912 8.38039 3.49984 6.99967 3.49984Z" fill="#238F53"/>
</g>
</g>
</svg>
