<svg width="20" height="20" viewBox="0 0 20 20" fill="none" xmlns="http://www.w3.org/2000/svg">
<g id="Group 427318968">
<path id="Vector" d="M19.9999 10.0002C19.9999 9.65094 19.9024 9.33338 19.7073 9.11127L16.0976 4.381C15.7073 3.873 15.0975 3.873 14.7072 4.381C14.3169 4.88899 14.3169 5.68265 14.7072 6.19065L16.6585 8.73042L6.97553 8.7302C6.43894 8.7302 6 9.30152 6 9.99994C6 10.6984 6.43894 11.2697 6.97553 11.2697H16.6829L14.7316 13.8095C14.3413 14.3174 14.3413 15.1111 14.7316 15.6191C14.9268 15.8731 15.1706 16 15.4145 16C15.6585 16 15.9023 15.8731 16.0975 15.6191L19.7072 10.9207C19.9025 10.6667 20 10.3494 20 10.0002L19.9999 10.0002Z" fill="#B8EBCD"/>
<path id="Vector_2" d="M4.53054 2.65307H12.2448C12.9183 2.65307 13.4692 2.10216 13.4692 1.42869C13.4692 0.755225 12.9183 0.204315 12.2448 0.204315L4.53054 0.204102C2.05101 0.204102 0 2.25528 0 4.73487V15.2348C0 17.7451 2.05101 19.7961 4.53054 19.7961H12.2448C12.9183 19.7961 13.4692 19.2452 13.4692 18.5717C13.4692 17.8983 12.9183 17.3473 12.2448 17.3473L4.53054 17.3471C3.36723 17.3471 2.44903 16.3982 2.44903 15.2656V4.73503C2.44903 3.60222 3.39795 2.6533 4.53054 2.6533V2.65307Z" fill="#B8EBCD"/>
</g>
</svg>
