<svg width="23" height="23" viewBox="0 0 23 23" fill="none" xmlns="http://www.w3.org/2000/svg">
<g id="Danger Circle">
<g id="Vector" filter="url(#filter0_b_1922_8189)">
<path fill-rule="evenodd" clip-rule="evenodd" d="M21 11C21 16.5228 16.5228 21 11 21C5.47715 21 1 16.5228 1 11C1 5.47715 5.47715 1 11 1C16.5228 1 21 5.47715 21 11Z" fill="#B8EBCD"/>
<path fill-rule="evenodd" clip-rule="evenodd" d="M21 11C21 16.5228 16.5228 21 11 21C5.47715 21 1 16.5228 1 11C1 5.47715 5.47715 1 11 1C16.5228 1 21 5.47715 21 11Z" stroke="url(#paint0_linear_1922_8189)"/>
</g>
<g id="Vector_2" filter="url(#filter1_d_1922_8189)">
<path fill-rule="evenodd" clip-rule="evenodd" d="M11 5.25C11.4142 5.25 11.75 5.58579 11.75 6V12C11.75 12.4142 11.4142 12.75 11 12.75C10.5858 12.75 10.25 12.4142 10.25 12V6C10.25 5.58579 10.5858 5.25 11 5.25ZM11 16C11.5523 16 12 15.5523 12 15C12 14.4477 11.5523 14 11 14C10.4477 14 10 14.4477 10 15C10 15.5523 10.4477 16 11 16Z" fill="#207144"/>
</g>
</g>
<defs>
<filter id="filter0_b_1922_8189" x="-23.5" y="-23.5" width="69" height="69" filterUnits="userSpaceOnUse" color-interpolation-filters="sRGB">
<feFlood flood-opacity="0" result="BackgroundImageFix"/>
<feGaussianBlur in="BackgroundImageFix" stdDeviation="12"/>
<feComposite in2="SourceAlpha" operator="in" result="effect1_backgroundBlur_1922_8189"/>
<feBlend mode="normal" in="SourceGraphic" in2="effect1_backgroundBlur_1922_8189" result="shape"/>
</filter>
<filter id="filter1_d_1922_8189" x="7" y="2.25" width="18" height="26.75" filterUnits="userSpaceOnUse" color-interpolation-filters="sRGB">
<feFlood flood-opacity="0" result="BackgroundImageFix"/>
<feColorMatrix in="SourceAlpha" type="matrix" values="0 0 0 0 0 0 0 0 0 0 0 0 0 0 0 0 0 0 127 0" result="hardAlpha"/>
<feOffset dx="5" dy="5"/>
<feGaussianBlur stdDeviation="4"/>
<feColorMatrix type="matrix" values="0 0 0 0 0.176471 0 0 0 0 0.556863 0 0 0 0 0.678431 0 0 0 0.5 0"/>
<feBlend mode="normal" in2="BackgroundImageFix" result="effect1_dropShadow_1922_8189"/>
<feBlend mode="normal" in="SourceGraphic" in2="effect1_dropShadow_1922_8189" result="shape"/>
</filter>
<linearGradient id="paint0_linear_1922_8189" x1="1" y1="1" x2="21.0101" y2="20.9899" gradientUnits="userSpaceOnUse">
<stop stop-color="white" stop-opacity="0.25"/>
<stop offset="1" stop-color="white" stop-opacity="0"/>
</linearGradient>
</defs>
</svg>
